%TF.GenerationSoftware,KiCad,Pcbnew,(5.1.10)-1*%
%TF.CreationDate,2022-03-03T22:12:33-05:00*%
%TF.ProjectId,DIY_Keyboard_PCB,4449595f-4b65-4796-926f-6172645f5043,rev?*%
%TF.SameCoordinates,Original*%
%TF.FileFunction,Copper,L1,Top*%
%TF.FilePolarity,Positive*%
%FSLAX46Y46*%
G04 Gerber Fmt 4.6, Leading zero omitted, Abs format (unit mm)*
G04 Created by KiCad (PCBNEW (5.1.10)-1) date 2022-03-03 22:12:33*
%MOMM*%
%LPD*%
G01*
G04 APERTURE LIST*
%TA.AperFunction,ComponentPad*%
%ADD10O,1.700000X2.700000*%
%TD*%
%TA.AperFunction,ComponentPad*%
%ADD11C,2.250000*%
%TD*%
%TA.AperFunction,ViaPad*%
%ADD12C,0.800000*%
%TD*%
%TA.AperFunction,Conductor*%
%ADD13C,0.381000*%
%TD*%
%TA.AperFunction,Conductor*%
%ADD14C,0.254000*%
%TD*%
G04 APERTURE END LIST*
D10*
%TO.P,USB1,6*%
%TO.N,Net-(USB1-Pad6)*%
X77312500Y-132556250D03*
X84612500Y-132556250D03*
X84612500Y-137056250D03*
X77312500Y-137056250D03*
%TD*%
D11*
%TO.P,MX4,1*%
%TO.N,COL1*%
X132437500Y-155543750D03*
%TA.AperFunction,ComponentPad*%
G36*
G01*
X130376188Y-157841100D02*
X130376183Y-157841095D01*
G75*
G02*
X130290155Y-156252433I751317J837345D01*
G01*
X131600157Y-154792433D01*
G75*
G02*
X133188819Y-154706405I837345J-751317D01*
G01*
X133188819Y-154706405D01*
G75*
G02*
X133274847Y-156295067I-751317J-837345D01*
G01*
X131964845Y-157755067D01*
G75*
G02*
X130376183Y-157841095I-837345J751317D01*
G01*
G37*
%TD.AperFunction*%
%TO.P,MX4,2*%
%TO.N,Net-(D4-Pad2)*%
X137477500Y-154463750D03*
%TA.AperFunction,ComponentPad*%
G36*
G01*
X137360983Y-156166145D02*
X137360097Y-156166084D01*
G75*
G02*
X136315166Y-154966347I77403J1122334D01*
G01*
X136355166Y-154386347D01*
G75*
G02*
X137554903Y-153341416I1122334J-77403D01*
G01*
X137554903Y-153341416D01*
G75*
G02*
X138599834Y-154541153I-77403J-1122334D01*
G01*
X138559834Y-155121153D01*
G75*
G02*
X137360097Y-156166084I-1122334J77403D01*
G01*
G37*
%TD.AperFunction*%
%TD*%
%TO.P,MX3,1*%
%TO.N,COL1*%
X132437500Y-136493750D03*
%TA.AperFunction,ComponentPad*%
G36*
G01*
X130376188Y-138791100D02*
X130376183Y-138791095D01*
G75*
G02*
X130290155Y-137202433I751317J837345D01*
G01*
X131600157Y-135742433D01*
G75*
G02*
X133188819Y-135656405I837345J-751317D01*
G01*
X133188819Y-135656405D01*
G75*
G02*
X133274847Y-137245067I-751317J-837345D01*
G01*
X131964845Y-138705067D01*
G75*
G02*
X130376183Y-138791095I-837345J751317D01*
G01*
G37*
%TD.AperFunction*%
%TO.P,MX3,2*%
%TO.N,Net-(D3-Pad2)*%
X137477500Y-135413750D03*
%TA.AperFunction,ComponentPad*%
G36*
G01*
X137360983Y-137116145D02*
X137360097Y-137116084D01*
G75*
G02*
X136315166Y-135916347I77403J1122334D01*
G01*
X136355166Y-135336347D01*
G75*
G02*
X137554903Y-134291416I1122334J-77403D01*
G01*
X137554903Y-134291416D01*
G75*
G02*
X138599834Y-135491153I-77403J-1122334D01*
G01*
X138559834Y-136071153D01*
G75*
G02*
X137360097Y-137116084I-1122334J77403D01*
G01*
G37*
%TD.AperFunction*%
%TD*%
%TO.P,MX2,1*%
%TO.N,COL0*%
X113387500Y-155543750D03*
%TA.AperFunction,ComponentPad*%
G36*
G01*
X111326188Y-157841100D02*
X111326183Y-157841095D01*
G75*
G02*
X111240155Y-156252433I751317J837345D01*
G01*
X112550157Y-154792433D01*
G75*
G02*
X114138819Y-154706405I837345J-751317D01*
G01*
X114138819Y-154706405D01*
G75*
G02*
X114224847Y-156295067I-751317J-837345D01*
G01*
X112914845Y-157755067D01*
G75*
G02*
X111326183Y-157841095I-837345J751317D01*
G01*
G37*
%TD.AperFunction*%
%TO.P,MX2,2*%
%TO.N,Net-(D2-Pad2)*%
X118427500Y-154463750D03*
%TA.AperFunction,ComponentPad*%
G36*
G01*
X118310983Y-156166145D02*
X118310097Y-156166084D01*
G75*
G02*
X117265166Y-154966347I77403J1122334D01*
G01*
X117305166Y-154386347D01*
G75*
G02*
X118504903Y-153341416I1122334J-77403D01*
G01*
X118504903Y-153341416D01*
G75*
G02*
X119549834Y-154541153I-77403J-1122334D01*
G01*
X119509834Y-155121153D01*
G75*
G02*
X118310097Y-156166084I-1122334J77403D01*
G01*
G37*
%TD.AperFunction*%
%TD*%
%TO.P,MX1,1*%
%TO.N,COL0*%
X113387500Y-136493750D03*
%TA.AperFunction,ComponentPad*%
G36*
G01*
X111326188Y-138791100D02*
X111326183Y-138791095D01*
G75*
G02*
X111240155Y-137202433I751317J837345D01*
G01*
X112550157Y-135742433D01*
G75*
G02*
X114138819Y-135656405I837345J-751317D01*
G01*
X114138819Y-135656405D01*
G75*
G02*
X114224847Y-137245067I-751317J-837345D01*
G01*
X112914845Y-138705067D01*
G75*
G02*
X111326183Y-138791095I-837345J751317D01*
G01*
G37*
%TD.AperFunction*%
%TO.P,MX1,2*%
%TO.N,Net-(D1-Pad2)*%
X118427500Y-135413750D03*
%TA.AperFunction,ComponentPad*%
G36*
G01*
X118310983Y-137116145D02*
X118310097Y-137116084D01*
G75*
G02*
X117265166Y-135916347I77403J1122334D01*
G01*
X117305166Y-135336347D01*
G75*
G02*
X118504903Y-134291416I1122334J-77403D01*
G01*
X118504903Y-134291416D01*
G75*
G02*
X119549834Y-135491153I-77403J-1122334D01*
G01*
X119509834Y-136071153D01*
G75*
G02*
X118310097Y-137116084I-1122334J77403D01*
G01*
G37*
%TD.AperFunction*%
%TD*%
D12*
%TO.N,GND*%
X102393750Y-164306250D03*
X103187500Y-140493750D03*
%TO.N,+5V*%
X88106250Y-160337500D03*
X101600000Y-162718750D03*
X102393750Y-146050000D03*
X87312500Y-141287500D03*
X80168750Y-150812500D03*
X84931250Y-144462500D03*
%TO.N,Net-(R3-Pad2)*%
X84137500Y-157956250D03*
X86518750Y-143668750D03*
%TD*%
D13*
%TO.N,GND*%
X102393750Y-164306250D02*
X103981250Y-162718750D01*
X103981250Y-141287500D02*
X103187500Y-140493750D01*
X103981250Y-162718750D02*
X103981250Y-141287500D01*
%TO.N,+5V*%
X88106250Y-160337500D02*
X91281250Y-163512500D01*
X100806250Y-163512500D02*
X101600000Y-162718750D01*
X91281250Y-163512500D02*
X100806250Y-163512500D01*
X102393750Y-146050000D02*
X102393750Y-142875000D01*
X102393750Y-142875000D02*
X102393750Y-142081250D01*
X101600000Y-141287500D02*
X87312500Y-141287500D01*
X102393750Y-142081250D02*
X101600000Y-141287500D01*
X80168750Y-150812500D02*
X81756250Y-149225000D01*
X81756250Y-149225000D02*
X81756250Y-146050000D01*
X83343750Y-144462500D02*
X84931250Y-144462500D01*
X81756250Y-146050000D02*
X83343750Y-144462500D01*
D14*
%TO.N,COL0*%
X113387500Y-141645000D02*
X113387500Y-155543750D01*
X112077500Y-140335000D02*
X113387500Y-141645000D01*
X112077500Y-137953750D02*
X112077500Y-140335000D01*
%TO.N,COL1*%
X131127500Y-154233750D02*
X132437500Y-155543750D01*
X131127500Y-137953750D02*
X131127500Y-154233750D01*
%TO.N,Net-(R3-Pad2)*%
X84137500Y-157956250D02*
X86518750Y-155575000D01*
X86518750Y-155575000D02*
X86518750Y-144462500D01*
X86518750Y-144462500D02*
X86518750Y-143668750D01*
%TO.N,Net-(USB1-Pad6)*%
X77312500Y-137056250D02*
X77312500Y-132556250D01*
X84612500Y-132556250D02*
X77312500Y-132556250D01*
X84612500Y-132556250D02*
X84612500Y-137056250D01*
%TD*%
M02*
