%TF.GenerationSoftware,KiCad,Pcbnew,(5.1.10)-1*%
%TF.CreationDate,2022-03-03T22:12:33-05:00*%
%TF.ProjectId,DIY_Keyboard_PCB,4449595f-4b65-4796-926f-6172645f5043,rev?*%
%TF.SameCoordinates,Original*%
%TF.FileFunction,Legend,Bot*%
%TF.FilePolarity,Positive*%
%FSLAX46Y46*%
G04 Gerber Fmt 4.6, Leading zero omitted, Abs format (unit mm)*
G04 Created by KiCad (PCBNEW (5.1.10)-1) date 2022-03-03 22:12:33*
%MOMM*%
%LPD*%
G01*
G04 APERTURE LIST*
%ADD10C,0.150000*%
%ADD11C,0.120000*%
G04 APERTURE END LIST*
D10*
%TO.C,USB1*%
X77112500Y-138006250D02*
X84812500Y-138006250D01*
X84812500Y-132556250D02*
X84812500Y-138006250D01*
X77112500Y-132556250D02*
X77112500Y-138006250D01*
D11*
%TO.C,Y1*%
X96456250Y-137256250D02*
X96456250Y-140556250D01*
X96456250Y-140556250D02*
X92456250Y-140556250D01*
D10*
%TO.C,U1*%
X89440000Y-154781000D02*
X89440000Y-154206000D01*
X99790000Y-154781000D02*
X99790000Y-154106000D01*
X99790000Y-144431000D02*
X99790000Y-145106000D01*
X89440000Y-144431000D02*
X89440000Y-145106000D01*
X89440000Y-154781000D02*
X90115000Y-154781000D01*
X89440000Y-144431000D02*
X90115000Y-144431000D01*
X99790000Y-144431000D02*
X99115000Y-144431000D01*
X99790000Y-154781000D02*
X99115000Y-154781000D01*
X89440000Y-154206000D02*
X88165000Y-154206000D01*
%TO.C,SW1*%
X81168750Y-164306250D02*
G75*
G03*
X81168750Y-164306250I-1000000J0D01*
G01*
X82768750Y-161706250D02*
X77568750Y-161706250D01*
X82768750Y-166906250D02*
X82768750Y-161706250D01*
X77568750Y-166906250D02*
X82768750Y-166906250D01*
X77568750Y-161706250D02*
X77568750Y-166906250D01*
D11*
%TO.C,R4*%
X102166686Y-167422500D02*
X102620814Y-167422500D01*
X102166686Y-165952500D02*
X102620814Y-165952500D01*
%TO.C,R3*%
X80227500Y-156935436D02*
X80227500Y-157389564D01*
X81697500Y-156935436D02*
X81697500Y-157389564D01*
%TO.C,R2*%
X82491250Y-142308314D02*
X82491250Y-141854186D01*
X81021250Y-142308314D02*
X81021250Y-141854186D01*
%TO.C,R1*%
X80110000Y-142308314D02*
X80110000Y-141854186D01*
X78640000Y-142308314D02*
X78640000Y-141854186D01*
%TO.C,F1*%
X77595814Y-145140000D02*
X76391686Y-145140000D01*
X77595814Y-146960000D02*
X76391686Y-146960000D01*
%TO.C,D4*%
X143875000Y-161793750D02*
X141875000Y-161793750D01*
X141875000Y-161793750D02*
X141875000Y-157893750D01*
X143875000Y-161793750D02*
X143875000Y-157893750D01*
%TO.C,D3*%
X143875000Y-142743750D02*
X141875000Y-142743750D01*
X141875000Y-142743750D02*
X141875000Y-138843750D01*
X143875000Y-142743750D02*
X143875000Y-138843750D01*
%TO.C,D2*%
X124825000Y-161793750D02*
X122825000Y-161793750D01*
X122825000Y-161793750D02*
X122825000Y-157893750D01*
X124825000Y-161793750D02*
X124825000Y-157893750D01*
%TO.C,D1*%
X124825000Y-142743750D02*
X122825000Y-142743750D01*
X122825000Y-142743750D02*
X122825000Y-138843750D01*
X124825000Y-142743750D02*
X124825000Y-138843750D01*
%TO.C,C7*%
X98686252Y-157888000D02*
X98163748Y-157888000D01*
X98686252Y-159358000D02*
X98163748Y-159358000D01*
%TO.C,C6*%
X84196250Y-148963748D02*
X84196250Y-149486252D01*
X85666250Y-148963748D02*
X85666250Y-149486252D01*
%TO.C,C5*%
X98686252Y-160682000D02*
X98163748Y-160682000D01*
X98686252Y-162152000D02*
X98163748Y-162152000D01*
%TO.C,C4*%
X85192502Y-145315000D02*
X84669998Y-145315000D01*
X85192502Y-146785000D02*
X84669998Y-146785000D01*
%TO.C,C3*%
X89752500Y-138644998D02*
X89752500Y-139167502D01*
X91222500Y-138644998D02*
X91222500Y-139167502D01*
%TO.C,C2*%
X90924748Y-159104000D02*
X91447252Y-159104000D01*
X90924748Y-157634000D02*
X91447252Y-157634000D01*
%TO.C,C1*%
X99160000Y-139167502D02*
X99160000Y-138644998D01*
X97690000Y-139167502D02*
X97690000Y-138644998D01*
%TO.C,USB1*%
D10*
X89050595Y-134040630D02*
X89050595Y-134850154D01*
X89002976Y-134945392D01*
X88955357Y-134993011D01*
X88860119Y-135040630D01*
X88669642Y-135040630D01*
X88574404Y-134993011D01*
X88526785Y-134945392D01*
X88479166Y-134850154D01*
X88479166Y-134040630D01*
X88050595Y-134993011D02*
X87907738Y-135040630D01*
X87669642Y-135040630D01*
X87574404Y-134993011D01*
X87526785Y-134945392D01*
X87479166Y-134850154D01*
X87479166Y-134754916D01*
X87526785Y-134659678D01*
X87574404Y-134612059D01*
X87669642Y-134564440D01*
X87860119Y-134516821D01*
X87955357Y-134469202D01*
X88002976Y-134421583D01*
X88050595Y-134326345D01*
X88050595Y-134231107D01*
X88002976Y-134135869D01*
X87955357Y-134088250D01*
X87860119Y-134040630D01*
X87622023Y-134040630D01*
X87479166Y-134088250D01*
X86717261Y-134516821D02*
X86574404Y-134564440D01*
X86526785Y-134612059D01*
X86479166Y-134707297D01*
X86479166Y-134850154D01*
X86526785Y-134945392D01*
X86574404Y-134993011D01*
X86669642Y-135040630D01*
X87050595Y-135040630D01*
X87050595Y-134040630D01*
X86717261Y-134040630D01*
X86622023Y-134088250D01*
X86574404Y-134135869D01*
X86526785Y-134231107D01*
X86526785Y-134326345D01*
X86574404Y-134421583D01*
X86622023Y-134469202D01*
X86717261Y-134516821D01*
X87050595Y-134516821D01*
X85526785Y-135040630D02*
X86098214Y-135040630D01*
X85812500Y-135040630D02*
X85812500Y-134040630D01*
X85907738Y-134183488D01*
X86002976Y-134278726D01*
X86098214Y-134326345D01*
%TO.C,Y1*%
X94932440Y-136432440D02*
X94932440Y-136908630D01*
X95265773Y-135908630D02*
X94932440Y-136432440D01*
X94599107Y-135908630D01*
X93741964Y-136908630D02*
X94313392Y-136908630D01*
X94027678Y-136908630D02*
X94027678Y-135908630D01*
X94122916Y-136051488D01*
X94218154Y-136146726D01*
X94313392Y-136194345D01*
%TO.C,U1*%
X95376904Y-156508380D02*
X95376904Y-157317904D01*
X95329285Y-157413142D01*
X95281666Y-157460761D01*
X95186428Y-157508380D01*
X94995952Y-157508380D01*
X94900714Y-157460761D01*
X94853095Y-157413142D01*
X94805476Y-157317904D01*
X94805476Y-156508380D01*
X93805476Y-157508380D02*
X94376904Y-157508380D01*
X94091190Y-157508380D02*
X94091190Y-156508380D01*
X94186428Y-156651238D01*
X94281666Y-156746476D01*
X94376904Y-156794095D01*
%TO.C,SW1*%
X84637511Y-162972916D02*
X84685130Y-163115773D01*
X84685130Y-163353869D01*
X84637511Y-163449107D01*
X84589892Y-163496726D01*
X84494654Y-163544345D01*
X84399416Y-163544345D01*
X84304178Y-163496726D01*
X84256559Y-163449107D01*
X84208940Y-163353869D01*
X84161321Y-163163392D01*
X84113702Y-163068154D01*
X84066083Y-163020535D01*
X83970845Y-162972916D01*
X83875607Y-162972916D01*
X83780369Y-163020535D01*
X83732750Y-163068154D01*
X83685130Y-163163392D01*
X83685130Y-163401488D01*
X83732750Y-163544345D01*
X83685130Y-163877678D02*
X84685130Y-164115773D01*
X83970845Y-164306250D01*
X84685130Y-164496726D01*
X83685130Y-164734821D01*
X84685130Y-165639583D02*
X84685130Y-165068154D01*
X84685130Y-165353869D02*
X83685130Y-165353869D01*
X83827988Y-165258630D01*
X83923226Y-165163392D01*
X83970845Y-165068154D01*
%TO.C,R4*%
X102560416Y-168789880D02*
X102893750Y-168313690D01*
X103131845Y-168789880D02*
X103131845Y-167789880D01*
X102750892Y-167789880D01*
X102655654Y-167837500D01*
X102608035Y-167885119D01*
X102560416Y-167980357D01*
X102560416Y-168123214D01*
X102608035Y-168218452D01*
X102655654Y-168266071D01*
X102750892Y-168313690D01*
X103131845Y-168313690D01*
X101703273Y-168123214D02*
X101703273Y-168789880D01*
X101941369Y-167742261D02*
X102179464Y-168456547D01*
X101560416Y-168456547D01*
%TO.C,R3*%
X79764880Y-156995833D02*
X79288690Y-156662500D01*
X79764880Y-156424404D02*
X78764880Y-156424404D01*
X78764880Y-156805357D01*
X78812500Y-156900595D01*
X78860119Y-156948214D01*
X78955357Y-156995833D01*
X79098214Y-156995833D01*
X79193452Y-156948214D01*
X79241071Y-156900595D01*
X79288690Y-156805357D01*
X79288690Y-156424404D01*
X78764880Y-157329166D02*
X78764880Y-157948214D01*
X79145833Y-157614880D01*
X79145833Y-157757738D01*
X79193452Y-157852976D01*
X79241071Y-157900595D01*
X79336309Y-157948214D01*
X79574404Y-157948214D01*
X79669642Y-157900595D01*
X79717261Y-157852976D01*
X79764880Y-157757738D01*
X79764880Y-157472023D01*
X79717261Y-157376785D01*
X79669642Y-157329166D01*
%TO.C,R2*%
X83858630Y-141914583D02*
X83382440Y-141581250D01*
X83858630Y-141343154D02*
X82858630Y-141343154D01*
X82858630Y-141724107D01*
X82906250Y-141819345D01*
X82953869Y-141866964D01*
X83049107Y-141914583D01*
X83191964Y-141914583D01*
X83287202Y-141866964D01*
X83334821Y-141819345D01*
X83382440Y-141724107D01*
X83382440Y-141343154D01*
X82953869Y-142295535D02*
X82906250Y-142343154D01*
X82858630Y-142438392D01*
X82858630Y-142676488D01*
X82906250Y-142771726D01*
X82953869Y-142819345D01*
X83049107Y-142866964D01*
X83144345Y-142866964D01*
X83287202Y-142819345D01*
X83858630Y-142247916D01*
X83858630Y-142866964D01*
%TO.C,R1*%
X81477380Y-141914583D02*
X81001190Y-141581250D01*
X81477380Y-141343154D02*
X80477380Y-141343154D01*
X80477380Y-141724107D01*
X80525000Y-141819345D01*
X80572619Y-141866964D01*
X80667857Y-141914583D01*
X80810714Y-141914583D01*
X80905952Y-141866964D01*
X80953571Y-141819345D01*
X81001190Y-141724107D01*
X81001190Y-141343154D01*
X81477380Y-142866964D02*
X81477380Y-142295535D01*
X81477380Y-142581250D02*
X80477380Y-142581250D01*
X80620238Y-142486011D01*
X80715476Y-142390773D01*
X80763095Y-142295535D01*
%TO.C,F1*%
X77327083Y-144158571D02*
X77660416Y-144158571D01*
X77660416Y-144682380D02*
X77660416Y-143682380D01*
X77184226Y-143682380D01*
X76279464Y-144682380D02*
X76850892Y-144682380D01*
X76565178Y-144682380D02*
X76565178Y-143682380D01*
X76660416Y-143825238D01*
X76755654Y-143920476D01*
X76850892Y-143968095D01*
%TO.C,D4*%
X145327380Y-158805654D02*
X144327380Y-158805654D01*
X144327380Y-159043750D01*
X144375000Y-159186607D01*
X144470238Y-159281845D01*
X144565476Y-159329464D01*
X144755952Y-159377083D01*
X144898809Y-159377083D01*
X145089285Y-159329464D01*
X145184523Y-159281845D01*
X145279761Y-159186607D01*
X145327380Y-159043750D01*
X145327380Y-158805654D01*
X144660714Y-160234226D02*
X145327380Y-160234226D01*
X144279761Y-159996130D02*
X144994047Y-159758035D01*
X144994047Y-160377083D01*
%TO.C,D3*%
X145327380Y-139755654D02*
X144327380Y-139755654D01*
X144327380Y-139993750D01*
X144375000Y-140136607D01*
X144470238Y-140231845D01*
X144565476Y-140279464D01*
X144755952Y-140327083D01*
X144898809Y-140327083D01*
X145089285Y-140279464D01*
X145184523Y-140231845D01*
X145279761Y-140136607D01*
X145327380Y-139993750D01*
X145327380Y-139755654D01*
X144327380Y-140660416D02*
X144327380Y-141279464D01*
X144708333Y-140946130D01*
X144708333Y-141088988D01*
X144755952Y-141184226D01*
X144803571Y-141231845D01*
X144898809Y-141279464D01*
X145136904Y-141279464D01*
X145232142Y-141231845D01*
X145279761Y-141184226D01*
X145327380Y-141088988D01*
X145327380Y-140803273D01*
X145279761Y-140708035D01*
X145232142Y-140660416D01*
%TO.C,D2*%
X126277380Y-158805654D02*
X125277380Y-158805654D01*
X125277380Y-159043750D01*
X125325000Y-159186607D01*
X125420238Y-159281845D01*
X125515476Y-159329464D01*
X125705952Y-159377083D01*
X125848809Y-159377083D01*
X126039285Y-159329464D01*
X126134523Y-159281845D01*
X126229761Y-159186607D01*
X126277380Y-159043750D01*
X126277380Y-158805654D01*
X125372619Y-159758035D02*
X125325000Y-159805654D01*
X125277380Y-159900892D01*
X125277380Y-160138988D01*
X125325000Y-160234226D01*
X125372619Y-160281845D01*
X125467857Y-160329464D01*
X125563095Y-160329464D01*
X125705952Y-160281845D01*
X126277380Y-159710416D01*
X126277380Y-160329464D01*
%TO.C,D1*%
X126277380Y-139755654D02*
X125277380Y-139755654D01*
X125277380Y-139993750D01*
X125325000Y-140136607D01*
X125420238Y-140231845D01*
X125515476Y-140279464D01*
X125705952Y-140327083D01*
X125848809Y-140327083D01*
X126039285Y-140279464D01*
X126134523Y-140231845D01*
X126229761Y-140136607D01*
X126277380Y-139993750D01*
X126277380Y-139755654D01*
X126277380Y-141279464D02*
X126277380Y-140708035D01*
X126277380Y-140993750D02*
X125277380Y-140993750D01*
X125420238Y-140898511D01*
X125515476Y-140803273D01*
X125563095Y-140708035D01*
%TO.C,C7*%
X98591666Y-157300142D02*
X98639285Y-157347761D01*
X98782142Y-157395380D01*
X98877380Y-157395380D01*
X99020238Y-157347761D01*
X99115476Y-157252523D01*
X99163095Y-157157285D01*
X99210714Y-156966809D01*
X99210714Y-156823952D01*
X99163095Y-156633476D01*
X99115476Y-156538238D01*
X99020238Y-156443000D01*
X98877380Y-156395380D01*
X98782142Y-156395380D01*
X98639285Y-156443000D01*
X98591666Y-156490619D01*
X98258333Y-156395380D02*
X97591666Y-156395380D01*
X98020238Y-157395380D01*
%TO.C,C6*%
X83608392Y-149058333D02*
X83656011Y-149010714D01*
X83703630Y-148867857D01*
X83703630Y-148772619D01*
X83656011Y-148629761D01*
X83560773Y-148534523D01*
X83465535Y-148486904D01*
X83275059Y-148439285D01*
X83132202Y-148439285D01*
X82941726Y-148486904D01*
X82846488Y-148534523D01*
X82751250Y-148629761D01*
X82703630Y-148772619D01*
X82703630Y-148867857D01*
X82751250Y-149010714D01*
X82798869Y-149058333D01*
X82703630Y-149915476D02*
X82703630Y-149725000D01*
X82751250Y-149629761D01*
X82798869Y-149582142D01*
X82941726Y-149486904D01*
X83132202Y-149439285D01*
X83513154Y-149439285D01*
X83608392Y-149486904D01*
X83656011Y-149534523D01*
X83703630Y-149629761D01*
X83703630Y-149820238D01*
X83656011Y-149915476D01*
X83608392Y-149963095D01*
X83513154Y-150010714D01*
X83275059Y-150010714D01*
X83179821Y-149963095D01*
X83132202Y-149915476D01*
X83084583Y-149820238D01*
X83084583Y-149629761D01*
X83132202Y-149534523D01*
X83179821Y-149486904D01*
X83275059Y-149439285D01*
%TO.C,C5*%
X98591666Y-160094142D02*
X98639285Y-160141761D01*
X98782142Y-160189380D01*
X98877380Y-160189380D01*
X99020238Y-160141761D01*
X99115476Y-160046523D01*
X99163095Y-159951285D01*
X99210714Y-159760809D01*
X99210714Y-159617952D01*
X99163095Y-159427476D01*
X99115476Y-159332238D01*
X99020238Y-159237000D01*
X98877380Y-159189380D01*
X98782142Y-159189380D01*
X98639285Y-159237000D01*
X98591666Y-159284619D01*
X97686904Y-159189380D02*
X98163095Y-159189380D01*
X98210714Y-159665571D01*
X98163095Y-159617952D01*
X98067857Y-159570333D01*
X97829761Y-159570333D01*
X97734523Y-159617952D01*
X97686904Y-159665571D01*
X97639285Y-159760809D01*
X97639285Y-159998904D01*
X97686904Y-160094142D01*
X97734523Y-160141761D01*
X97829761Y-160189380D01*
X98067857Y-160189380D01*
X98163095Y-160141761D01*
X98210714Y-160094142D01*
%TO.C,C4*%
X85097916Y-144727142D02*
X85145535Y-144774761D01*
X85288392Y-144822380D01*
X85383630Y-144822380D01*
X85526488Y-144774761D01*
X85621726Y-144679523D01*
X85669345Y-144584285D01*
X85716964Y-144393809D01*
X85716964Y-144250952D01*
X85669345Y-144060476D01*
X85621726Y-143965238D01*
X85526488Y-143870000D01*
X85383630Y-143822380D01*
X85288392Y-143822380D01*
X85145535Y-143870000D01*
X85097916Y-143917619D01*
X84240773Y-144155714D02*
X84240773Y-144822380D01*
X84478869Y-143774761D02*
X84716964Y-144489047D01*
X84097916Y-144489047D01*
%TO.C,C3*%
X89164642Y-138739583D02*
X89212261Y-138691964D01*
X89259880Y-138549107D01*
X89259880Y-138453869D01*
X89212261Y-138311011D01*
X89117023Y-138215773D01*
X89021785Y-138168154D01*
X88831309Y-138120535D01*
X88688452Y-138120535D01*
X88497976Y-138168154D01*
X88402738Y-138215773D01*
X88307500Y-138311011D01*
X88259880Y-138453869D01*
X88259880Y-138549107D01*
X88307500Y-138691964D01*
X88355119Y-138739583D01*
X88259880Y-139072916D02*
X88259880Y-139691964D01*
X88640833Y-139358630D01*
X88640833Y-139501488D01*
X88688452Y-139596726D01*
X88736071Y-139644345D01*
X88831309Y-139691964D01*
X89069404Y-139691964D01*
X89164642Y-139644345D01*
X89212261Y-139596726D01*
X89259880Y-139501488D01*
X89259880Y-139215773D01*
X89212261Y-139120535D01*
X89164642Y-139072916D01*
%TO.C,C2*%
X91352666Y-160406142D02*
X91400285Y-160453761D01*
X91543142Y-160501380D01*
X91638380Y-160501380D01*
X91781238Y-160453761D01*
X91876476Y-160358523D01*
X91924095Y-160263285D01*
X91971714Y-160072809D01*
X91971714Y-159929952D01*
X91924095Y-159739476D01*
X91876476Y-159644238D01*
X91781238Y-159549000D01*
X91638380Y-159501380D01*
X91543142Y-159501380D01*
X91400285Y-159549000D01*
X91352666Y-159596619D01*
X90971714Y-159596619D02*
X90924095Y-159549000D01*
X90828857Y-159501380D01*
X90590761Y-159501380D01*
X90495523Y-159549000D01*
X90447904Y-159596619D01*
X90400285Y-159691857D01*
X90400285Y-159787095D01*
X90447904Y-159929952D01*
X91019333Y-160501380D01*
X90400285Y-160501380D01*
%TO.C,C1*%
X100462142Y-138739583D02*
X100509761Y-138691964D01*
X100557380Y-138549107D01*
X100557380Y-138453869D01*
X100509761Y-138311011D01*
X100414523Y-138215773D01*
X100319285Y-138168154D01*
X100128809Y-138120535D01*
X99985952Y-138120535D01*
X99795476Y-138168154D01*
X99700238Y-138215773D01*
X99605000Y-138311011D01*
X99557380Y-138453869D01*
X99557380Y-138549107D01*
X99605000Y-138691964D01*
X99652619Y-138739583D01*
X100557380Y-139691964D02*
X100557380Y-139120535D01*
X100557380Y-139406250D02*
X99557380Y-139406250D01*
X99700238Y-139311011D01*
X99795476Y-139215773D01*
X99843095Y-139120535D01*
%TD*%
M02*
