M48
; DRILL file {KiCad (5.1.10)-1} date 03/03/22 22:13:11
; FORMAT={-:-/ absolute / inch / decimal}
; #@! TF.CreationDate,2022-03-03T22:13:11-05:00
; #@! TF.GenerationSoftware,Kicad,Pcbnew,(5.1.10)-1
; #@! TF.FileFunction,Plated,1,2,PTH
FMAT,2
INCH
T1C0.0157
T2C0.0276
T3C0.0579
%
G90
G05
T1
X3.1562Y-5.9375
X3.3125Y-6.2188
X3.3438Y-5.6875
X3.4062Y-5.6562
X3.4375Y-5.5625
X3.4688Y-6.3125
X4.0Y-6.4062
X4.0312Y-5.75
X4.0312Y-6.4688
X4.0625Y-5.5312
T3
X4.4125Y-5.4312
X4.4125Y-6.1812
X4.4641Y-5.3738
X4.4641Y-6.1238
X4.6609Y-5.3541
X4.6609Y-6.1041
X4.6625Y-5.3312
X4.6625Y-6.0812
X5.1625Y-5.4312
X5.1625Y-6.1812
X5.2141Y-5.3738
X5.2141Y-6.1238
X5.4109Y-5.3541
X5.4109Y-6.1041
X5.4125Y-5.3312
X5.4125Y-6.0812
T2
G00X3.0438Y-5.1951
M15
G01X3.0438Y-5.2424
M16
G05
G00X3.0438Y-5.3723
M15
G01X3.0438Y-5.4195
M16
G05
G00X3.3312Y-5.1951
M15
G01X3.3312Y-5.2424
M16
G05
G00X3.3312Y-5.3723
M15
G01X3.3312Y-5.4195
M16
G05
T0
M30
