%TF.GenerationSoftware,KiCad,Pcbnew,(5.1.10)-1*%
%TF.CreationDate,2022-03-03T22:12:33-05:00*%
%TF.ProjectId,DIY_Keyboard_PCB,4449595f-4b65-4796-926f-6172645f5043,rev?*%
%TF.SameCoordinates,Original*%
%TF.FileFunction,Soldermask,Bot*%
%TF.FilePolarity,Negative*%
%FSLAX46Y46*%
G04 Gerber Fmt 4.6, Leading zero omitted, Abs format (unit mm)*
G04 Created by KiCad (PCBNEW (5.1.10)-1) date 2022-03-03 22:12:33*
%MOMM*%
%LPD*%
G01*
G04 APERTURE LIST*
%ADD10O,1.700000X2.700000*%
%ADD11R,0.500000X2.250000*%
%ADD12R,1.400000X1.200000*%
%ADD13R,0.550000X1.500000*%
%ADD14R,1.500000X0.550000*%
%ADD15R,1.100000X1.800000*%
%ADD16C,1.750000*%
%ADD17C,2.250000*%
%ADD18C,3.987800*%
%ADD19R,1.200000X0.900000*%
G04 APERTURE END LIST*
D10*
%TO.C,USB1*%
X77312500Y-132556250D03*
X84612500Y-132556250D03*
X84612500Y-137056250D03*
X77312500Y-137056250D03*
D11*
X79362500Y-137056250D03*
X80162500Y-137056250D03*
X80962500Y-137056250D03*
X81762500Y-137056250D03*
X82562500Y-137056250D03*
%TD*%
D12*
%TO.C,Y1*%
X95556250Y-138056250D03*
X93356250Y-138056250D03*
X93356250Y-139756250D03*
X95556250Y-139756250D03*
%TD*%
D13*
%TO.C,U1*%
X90615000Y-155306000D03*
X91415000Y-155306000D03*
X92215000Y-155306000D03*
X93015000Y-155306000D03*
X93815000Y-155306000D03*
X94615000Y-155306000D03*
X95415000Y-155306000D03*
X96215000Y-155306000D03*
X97015000Y-155306000D03*
X97815000Y-155306000D03*
X98615000Y-155306000D03*
D14*
X100315000Y-153606000D03*
X100315000Y-152806000D03*
X100315000Y-152006000D03*
X100315000Y-151206000D03*
X100315000Y-150406000D03*
X100315000Y-149606000D03*
X100315000Y-148806000D03*
X100315000Y-148006000D03*
X100315000Y-147206000D03*
X100315000Y-146406000D03*
X100315000Y-145606000D03*
D13*
X98615000Y-143906000D03*
X97815000Y-143906000D03*
X97015000Y-143906000D03*
X96215000Y-143906000D03*
X95415000Y-143906000D03*
X94615000Y-143906000D03*
X93815000Y-143906000D03*
X93015000Y-143906000D03*
X92215000Y-143906000D03*
X91415000Y-143906000D03*
X90615000Y-143906000D03*
D14*
X88915000Y-145606000D03*
X88915000Y-146406000D03*
X88915000Y-147206000D03*
X88915000Y-148006000D03*
X88915000Y-148806000D03*
X88915000Y-149606000D03*
X88915000Y-150406000D03*
X88915000Y-151206000D03*
X88915000Y-152006000D03*
X88915000Y-152806000D03*
X88915000Y-153606000D03*
%TD*%
D15*
%TO.C,SW1*%
X82018750Y-161206250D03*
X78318750Y-167406250D03*
X78318750Y-161206250D03*
X82018750Y-167406250D03*
%TD*%
%TO.C,R4*%
G36*
G01*
X102793750Y-167137501D02*
X102793750Y-166237499D01*
G75*
G02*
X103043749Y-165987500I249999J0D01*
G01*
X103568751Y-165987500D01*
G75*
G02*
X103818750Y-166237499I0J-249999D01*
G01*
X103818750Y-167137501D01*
G75*
G02*
X103568751Y-167387500I-249999J0D01*
G01*
X103043749Y-167387500D01*
G75*
G02*
X102793750Y-167137501I0J249999D01*
G01*
G37*
G36*
G01*
X100968750Y-167137501D02*
X100968750Y-166237499D01*
G75*
G02*
X101218749Y-165987500I249999J0D01*
G01*
X101743751Y-165987500D01*
G75*
G02*
X101993750Y-166237499I0J-249999D01*
G01*
X101993750Y-167137501D01*
G75*
G02*
X101743751Y-167387500I-249999J0D01*
G01*
X101218749Y-167387500D01*
G75*
G02*
X100968750Y-167137501I0J249999D01*
G01*
G37*
%TD*%
%TO.C,R3*%
G36*
G01*
X80512499Y-157562500D02*
X81412501Y-157562500D01*
G75*
G02*
X81662500Y-157812499I0J-249999D01*
G01*
X81662500Y-158337501D01*
G75*
G02*
X81412501Y-158587500I-249999J0D01*
G01*
X80512499Y-158587500D01*
G75*
G02*
X80262500Y-158337501I0J249999D01*
G01*
X80262500Y-157812499D01*
G75*
G02*
X80512499Y-157562500I249999J0D01*
G01*
G37*
G36*
G01*
X80512499Y-155737500D02*
X81412501Y-155737500D01*
G75*
G02*
X81662500Y-155987499I0J-249999D01*
G01*
X81662500Y-156512501D01*
G75*
G02*
X81412501Y-156762500I-249999J0D01*
G01*
X80512499Y-156762500D01*
G75*
G02*
X80262500Y-156512501I0J249999D01*
G01*
X80262500Y-155987499D01*
G75*
G02*
X80512499Y-155737500I249999J0D01*
G01*
G37*
%TD*%
%TO.C,R2*%
G36*
G01*
X82206251Y-141681250D02*
X81306249Y-141681250D01*
G75*
G02*
X81056250Y-141431251I0J249999D01*
G01*
X81056250Y-140906249D01*
G75*
G02*
X81306249Y-140656250I249999J0D01*
G01*
X82206251Y-140656250D01*
G75*
G02*
X82456250Y-140906249I0J-249999D01*
G01*
X82456250Y-141431251D01*
G75*
G02*
X82206251Y-141681250I-249999J0D01*
G01*
G37*
G36*
G01*
X82206251Y-143506250D02*
X81306249Y-143506250D01*
G75*
G02*
X81056250Y-143256251I0J249999D01*
G01*
X81056250Y-142731249D01*
G75*
G02*
X81306249Y-142481250I249999J0D01*
G01*
X82206251Y-142481250D01*
G75*
G02*
X82456250Y-142731249I0J-249999D01*
G01*
X82456250Y-143256251D01*
G75*
G02*
X82206251Y-143506250I-249999J0D01*
G01*
G37*
%TD*%
%TO.C,R1*%
G36*
G01*
X79825001Y-141681250D02*
X78924999Y-141681250D01*
G75*
G02*
X78675000Y-141431251I0J249999D01*
G01*
X78675000Y-140906249D01*
G75*
G02*
X78924999Y-140656250I249999J0D01*
G01*
X79825001Y-140656250D01*
G75*
G02*
X80075000Y-140906249I0J-249999D01*
G01*
X80075000Y-141431251D01*
G75*
G02*
X79825001Y-141681250I-249999J0D01*
G01*
G37*
G36*
G01*
X79825001Y-143506250D02*
X78924999Y-143506250D01*
G75*
G02*
X78675000Y-143256251I0J249999D01*
G01*
X78675000Y-142731249D01*
G75*
G02*
X78924999Y-142481250I249999J0D01*
G01*
X79825001Y-142481250D01*
G75*
G02*
X80075000Y-142731249I0J-249999D01*
G01*
X80075000Y-143256251D01*
G75*
G02*
X79825001Y-143506250I-249999J0D01*
G01*
G37*
%TD*%
D16*
%TO.C,MX4*%
X140017500Y-159543750D03*
X129857500Y-159543750D03*
D17*
X132437500Y-155543750D03*
D18*
X134937500Y-159543750D03*
G36*
G01*
X130376188Y-157841100D02*
X130376183Y-157841095D01*
G75*
G02*
X130290155Y-156252433I751317J837345D01*
G01*
X131600157Y-154792433D01*
G75*
G02*
X133188819Y-154706405I837345J-751317D01*
G01*
X133188819Y-154706405D01*
G75*
G02*
X133274847Y-156295067I-751317J-837345D01*
G01*
X131964845Y-157755067D01*
G75*
G02*
X130376183Y-157841095I-837345J751317D01*
G01*
G37*
D17*
X137477500Y-154463750D03*
G36*
G01*
X137360983Y-156166145D02*
X137360097Y-156166084D01*
G75*
G02*
X136315166Y-154966347I77403J1122334D01*
G01*
X136355166Y-154386347D01*
G75*
G02*
X137554903Y-153341416I1122334J-77403D01*
G01*
X137554903Y-153341416D01*
G75*
G02*
X138599834Y-154541153I-77403J-1122334D01*
G01*
X138559834Y-155121153D01*
G75*
G02*
X137360097Y-156166084I-1122334J77403D01*
G01*
G37*
%TD*%
D16*
%TO.C,MX3*%
X140017500Y-140493750D03*
X129857500Y-140493750D03*
D17*
X132437500Y-136493750D03*
D18*
X134937500Y-140493750D03*
G36*
G01*
X130376188Y-138791100D02*
X130376183Y-138791095D01*
G75*
G02*
X130290155Y-137202433I751317J837345D01*
G01*
X131600157Y-135742433D01*
G75*
G02*
X133188819Y-135656405I837345J-751317D01*
G01*
X133188819Y-135656405D01*
G75*
G02*
X133274847Y-137245067I-751317J-837345D01*
G01*
X131964845Y-138705067D01*
G75*
G02*
X130376183Y-138791095I-837345J751317D01*
G01*
G37*
D17*
X137477500Y-135413750D03*
G36*
G01*
X137360983Y-137116145D02*
X137360097Y-137116084D01*
G75*
G02*
X136315166Y-135916347I77403J1122334D01*
G01*
X136355166Y-135336347D01*
G75*
G02*
X137554903Y-134291416I1122334J-77403D01*
G01*
X137554903Y-134291416D01*
G75*
G02*
X138599834Y-135491153I-77403J-1122334D01*
G01*
X138559834Y-136071153D01*
G75*
G02*
X137360097Y-137116084I-1122334J77403D01*
G01*
G37*
%TD*%
D16*
%TO.C,MX2*%
X120967500Y-159543750D03*
X110807500Y-159543750D03*
D17*
X113387500Y-155543750D03*
D18*
X115887500Y-159543750D03*
G36*
G01*
X111326188Y-157841100D02*
X111326183Y-157841095D01*
G75*
G02*
X111240155Y-156252433I751317J837345D01*
G01*
X112550157Y-154792433D01*
G75*
G02*
X114138819Y-154706405I837345J-751317D01*
G01*
X114138819Y-154706405D01*
G75*
G02*
X114224847Y-156295067I-751317J-837345D01*
G01*
X112914845Y-157755067D01*
G75*
G02*
X111326183Y-157841095I-837345J751317D01*
G01*
G37*
D17*
X118427500Y-154463750D03*
G36*
G01*
X118310983Y-156166145D02*
X118310097Y-156166084D01*
G75*
G02*
X117265166Y-154966347I77403J1122334D01*
G01*
X117305166Y-154386347D01*
G75*
G02*
X118504903Y-153341416I1122334J-77403D01*
G01*
X118504903Y-153341416D01*
G75*
G02*
X119549834Y-154541153I-77403J-1122334D01*
G01*
X119509834Y-155121153D01*
G75*
G02*
X118310097Y-156166084I-1122334J77403D01*
G01*
G37*
%TD*%
D16*
%TO.C,MX1*%
X120967500Y-140493750D03*
X110807500Y-140493750D03*
D17*
X113387500Y-136493750D03*
D18*
X115887500Y-140493750D03*
G36*
G01*
X111326188Y-138791100D02*
X111326183Y-138791095D01*
G75*
G02*
X111240155Y-137202433I751317J837345D01*
G01*
X112550157Y-135742433D01*
G75*
G02*
X114138819Y-135656405I837345J-751317D01*
G01*
X114138819Y-135656405D01*
G75*
G02*
X114224847Y-137245067I-751317J-837345D01*
G01*
X112914845Y-138705067D01*
G75*
G02*
X111326183Y-138791095I-837345J751317D01*
G01*
G37*
D17*
X118427500Y-135413750D03*
G36*
G01*
X118310983Y-137116145D02*
X118310097Y-137116084D01*
G75*
G02*
X117265166Y-135916347I77403J1122334D01*
G01*
X117305166Y-135336347D01*
G75*
G02*
X118504903Y-134291416I1122334J-77403D01*
G01*
X118504903Y-134291416D01*
G75*
G02*
X119549834Y-135491153I-77403J-1122334D01*
G01*
X119509834Y-136071153D01*
G75*
G02*
X118310097Y-137116084I-1122334J77403D01*
G01*
G37*
%TD*%
%TO.C,F1*%
G36*
G01*
X76218750Y-145425000D02*
X76218750Y-146675000D01*
G75*
G02*
X75968750Y-146925000I-250000J0D01*
G01*
X75218750Y-146925000D01*
G75*
G02*
X74968750Y-146675000I0J250000D01*
G01*
X74968750Y-145425000D01*
G75*
G02*
X75218750Y-145175000I250000J0D01*
G01*
X75968750Y-145175000D01*
G75*
G02*
X76218750Y-145425000I0J-250000D01*
G01*
G37*
G36*
G01*
X79018750Y-145425000D02*
X79018750Y-146675000D01*
G75*
G02*
X78768750Y-146925000I-250000J0D01*
G01*
X78018750Y-146925000D01*
G75*
G02*
X77768750Y-146675000I0J250000D01*
G01*
X77768750Y-145425000D01*
G75*
G02*
X78018750Y-145175000I250000J0D01*
G01*
X78768750Y-145175000D01*
G75*
G02*
X79018750Y-145425000I0J-250000D01*
G01*
G37*
%TD*%
D19*
%TO.C,D4*%
X142875000Y-157893750D03*
X142875000Y-161193750D03*
%TD*%
%TO.C,D3*%
X142875000Y-138843750D03*
X142875000Y-142143750D03*
%TD*%
%TO.C,D2*%
X123825000Y-157893750D03*
X123825000Y-161193750D03*
%TD*%
%TO.C,D1*%
X123825000Y-138843750D03*
X123825000Y-142143750D03*
%TD*%
%TO.C,C7*%
G36*
G01*
X97975000Y-158148000D02*
X97975000Y-159098000D01*
G75*
G02*
X97725000Y-159348000I-250000J0D01*
G01*
X97225000Y-159348000D01*
G75*
G02*
X96975000Y-159098000I0J250000D01*
G01*
X96975000Y-158148000D01*
G75*
G02*
X97225000Y-157898000I250000J0D01*
G01*
X97725000Y-157898000D01*
G75*
G02*
X97975000Y-158148000I0J-250000D01*
G01*
G37*
G36*
G01*
X99875000Y-158148000D02*
X99875000Y-159098000D01*
G75*
G02*
X99625000Y-159348000I-250000J0D01*
G01*
X99125000Y-159348000D01*
G75*
G02*
X98875000Y-159098000I0J250000D01*
G01*
X98875000Y-158148000D01*
G75*
G02*
X99125000Y-157898000I250000J0D01*
G01*
X99625000Y-157898000D01*
G75*
G02*
X99875000Y-158148000I0J-250000D01*
G01*
G37*
%TD*%
%TO.C,C6*%
G36*
G01*
X84456250Y-149675000D02*
X85406250Y-149675000D01*
G75*
G02*
X85656250Y-149925000I0J-250000D01*
G01*
X85656250Y-150425000D01*
G75*
G02*
X85406250Y-150675000I-250000J0D01*
G01*
X84456250Y-150675000D01*
G75*
G02*
X84206250Y-150425000I0J250000D01*
G01*
X84206250Y-149925000D01*
G75*
G02*
X84456250Y-149675000I250000J0D01*
G01*
G37*
G36*
G01*
X84456250Y-147775000D02*
X85406250Y-147775000D01*
G75*
G02*
X85656250Y-148025000I0J-250000D01*
G01*
X85656250Y-148525000D01*
G75*
G02*
X85406250Y-148775000I-250000J0D01*
G01*
X84456250Y-148775000D01*
G75*
G02*
X84206250Y-148525000I0J250000D01*
G01*
X84206250Y-148025000D01*
G75*
G02*
X84456250Y-147775000I250000J0D01*
G01*
G37*
%TD*%
%TO.C,C5*%
G36*
G01*
X97975000Y-160942000D02*
X97975000Y-161892000D01*
G75*
G02*
X97725000Y-162142000I-250000J0D01*
G01*
X97225000Y-162142000D01*
G75*
G02*
X96975000Y-161892000I0J250000D01*
G01*
X96975000Y-160942000D01*
G75*
G02*
X97225000Y-160692000I250000J0D01*
G01*
X97725000Y-160692000D01*
G75*
G02*
X97975000Y-160942000I0J-250000D01*
G01*
G37*
G36*
G01*
X99875000Y-160942000D02*
X99875000Y-161892000D01*
G75*
G02*
X99625000Y-162142000I-250000J0D01*
G01*
X99125000Y-162142000D01*
G75*
G02*
X98875000Y-161892000I0J250000D01*
G01*
X98875000Y-160942000D01*
G75*
G02*
X99125000Y-160692000I250000J0D01*
G01*
X99625000Y-160692000D01*
G75*
G02*
X99875000Y-160942000I0J-250000D01*
G01*
G37*
%TD*%
%TO.C,C4*%
G36*
G01*
X84481250Y-145575000D02*
X84481250Y-146525000D01*
G75*
G02*
X84231250Y-146775000I-250000J0D01*
G01*
X83731250Y-146775000D01*
G75*
G02*
X83481250Y-146525000I0J250000D01*
G01*
X83481250Y-145575000D01*
G75*
G02*
X83731250Y-145325000I250000J0D01*
G01*
X84231250Y-145325000D01*
G75*
G02*
X84481250Y-145575000I0J-250000D01*
G01*
G37*
G36*
G01*
X86381250Y-145575000D02*
X86381250Y-146525000D01*
G75*
G02*
X86131250Y-146775000I-250000J0D01*
G01*
X85631250Y-146775000D01*
G75*
G02*
X85381250Y-146525000I0J250000D01*
G01*
X85381250Y-145575000D01*
G75*
G02*
X85631250Y-145325000I250000J0D01*
G01*
X86131250Y-145325000D01*
G75*
G02*
X86381250Y-145575000I0J-250000D01*
G01*
G37*
%TD*%
%TO.C,C3*%
G36*
G01*
X90012500Y-139356250D02*
X90962500Y-139356250D01*
G75*
G02*
X91212500Y-139606250I0J-250000D01*
G01*
X91212500Y-140106250D01*
G75*
G02*
X90962500Y-140356250I-250000J0D01*
G01*
X90012500Y-140356250D01*
G75*
G02*
X89762500Y-140106250I0J250000D01*
G01*
X89762500Y-139606250D01*
G75*
G02*
X90012500Y-139356250I250000J0D01*
G01*
G37*
G36*
G01*
X90012500Y-137456250D02*
X90962500Y-137456250D01*
G75*
G02*
X91212500Y-137706250I0J-250000D01*
G01*
X91212500Y-138206250D01*
G75*
G02*
X90962500Y-138456250I-250000J0D01*
G01*
X90012500Y-138456250D01*
G75*
G02*
X89762500Y-138206250I0J250000D01*
G01*
X89762500Y-137706250D01*
G75*
G02*
X90012500Y-137456250I250000J0D01*
G01*
G37*
%TD*%
%TO.C,C2*%
G36*
G01*
X91636000Y-158844000D02*
X91636000Y-157894000D01*
G75*
G02*
X91886000Y-157644000I250000J0D01*
G01*
X92386000Y-157644000D01*
G75*
G02*
X92636000Y-157894000I0J-250000D01*
G01*
X92636000Y-158844000D01*
G75*
G02*
X92386000Y-159094000I-250000J0D01*
G01*
X91886000Y-159094000D01*
G75*
G02*
X91636000Y-158844000I0J250000D01*
G01*
G37*
G36*
G01*
X89736000Y-158844000D02*
X89736000Y-157894000D01*
G75*
G02*
X89986000Y-157644000I250000J0D01*
G01*
X90486000Y-157644000D01*
G75*
G02*
X90736000Y-157894000I0J-250000D01*
G01*
X90736000Y-158844000D01*
G75*
G02*
X90486000Y-159094000I-250000J0D01*
G01*
X89986000Y-159094000D01*
G75*
G02*
X89736000Y-158844000I0J250000D01*
G01*
G37*
%TD*%
%TO.C,C1*%
G36*
G01*
X98900000Y-138456250D02*
X97950000Y-138456250D01*
G75*
G02*
X97700000Y-138206250I0J250000D01*
G01*
X97700000Y-137706250D01*
G75*
G02*
X97950000Y-137456250I250000J0D01*
G01*
X98900000Y-137456250D01*
G75*
G02*
X99150000Y-137706250I0J-250000D01*
G01*
X99150000Y-138206250D01*
G75*
G02*
X98900000Y-138456250I-250000J0D01*
G01*
G37*
G36*
G01*
X98900000Y-140356250D02*
X97950000Y-140356250D01*
G75*
G02*
X97700000Y-140106250I0J250000D01*
G01*
X97700000Y-139606250D01*
G75*
G02*
X97950000Y-139356250I250000J0D01*
G01*
X98900000Y-139356250D01*
G75*
G02*
X99150000Y-139606250I0J-250000D01*
G01*
X99150000Y-140106250D01*
G75*
G02*
X98900000Y-140356250I-250000J0D01*
G01*
G37*
%TD*%
M02*
