%TF.GenerationSoftware,KiCad,Pcbnew,(5.1.10)-1*%
%TF.CreationDate,2022-03-03T22:12:33-05:00*%
%TF.ProjectId,DIY_Keyboard_PCB,4449595f-4b65-4796-926f-6172645f5043,rev?*%
%TF.SameCoordinates,Original*%
%TF.FileFunction,Copper,L2,Bot*%
%TF.FilePolarity,Positive*%
%FSLAX46Y46*%
G04 Gerber Fmt 4.6, Leading zero omitted, Abs format (unit mm)*
G04 Created by KiCad (PCBNEW (5.1.10)-1) date 2022-03-03 22:12:33*
%MOMM*%
%LPD*%
G01*
G04 APERTURE LIST*
%TA.AperFunction,ComponentPad*%
%ADD10O,1.700000X2.700000*%
%TD*%
%TA.AperFunction,SMDPad,CuDef*%
%ADD11R,0.500000X2.250000*%
%TD*%
%TA.AperFunction,SMDPad,CuDef*%
%ADD12R,1.400000X1.200000*%
%TD*%
%TA.AperFunction,SMDPad,CuDef*%
%ADD13R,0.550000X1.500000*%
%TD*%
%TA.AperFunction,SMDPad,CuDef*%
%ADD14R,1.500000X0.550000*%
%TD*%
%TA.AperFunction,SMDPad,CuDef*%
%ADD15R,1.100000X1.800000*%
%TD*%
%TA.AperFunction,ComponentPad*%
%ADD16C,2.250000*%
%TD*%
%TA.AperFunction,SMDPad,CuDef*%
%ADD17R,1.200000X0.900000*%
%TD*%
%TA.AperFunction,ViaPad*%
%ADD18C,0.800000*%
%TD*%
%TA.AperFunction,Conductor*%
%ADD19C,0.381000*%
%TD*%
%TA.AperFunction,Conductor*%
%ADD20C,0.254000*%
%TD*%
%TA.AperFunction,Conductor*%
%ADD21C,0.100000*%
%TD*%
G04 APERTURE END LIST*
D10*
%TO.P,USB1,6*%
%TO.N,Net-(USB1-Pad6)*%
X77312500Y-132556250D03*
X84612500Y-132556250D03*
X84612500Y-137056250D03*
X77312500Y-137056250D03*
D11*
%TO.P,USB1,5*%
%TO.N,VCC*%
X79362500Y-137056250D03*
%TO.P,USB1,4*%
%TO.N,D-*%
X80162500Y-137056250D03*
%TO.P,USB1,3*%
%TO.N,D+*%
X80962500Y-137056250D03*
%TO.P,USB1,2*%
%TO.N,Net-(USB1-Pad2)*%
X81762500Y-137056250D03*
%TO.P,USB1,1*%
%TO.N,GND*%
X82562500Y-137056250D03*
%TD*%
D12*
%TO.P,Y1,4*%
%TO.N,GND*%
X95556250Y-138056250D03*
%TO.P,Y1,3*%
%TO.N,Net-(C3-Pad1)*%
X93356250Y-138056250D03*
%TO.P,Y1,2*%
%TO.N,GND*%
X93356250Y-139756250D03*
%TO.P,Y1,1*%
%TO.N,Net-(C1-Pad1)*%
X95556250Y-139756250D03*
%TD*%
D13*
%TO.P,U1,44*%
%TO.N,+5V*%
X90615000Y-155306000D03*
%TO.P,U1,43*%
%TO.N,GND*%
X91415000Y-155306000D03*
%TO.P,U1,42*%
%TO.N,Net-(U1-Pad42)*%
X92215000Y-155306000D03*
%TO.P,U1,41*%
%TO.N,Net-(U1-Pad41)*%
X93015000Y-155306000D03*
%TO.P,U1,40*%
%TO.N,Net-(U1-Pad40)*%
X93815000Y-155306000D03*
%TO.P,U1,39*%
%TO.N,Net-(U1-Pad39)*%
X94615000Y-155306000D03*
%TO.P,U1,38*%
%TO.N,Net-(U1-Pad38)*%
X95415000Y-155306000D03*
%TO.P,U1,37*%
%TO.N,Net-(U1-Pad37)*%
X96215000Y-155306000D03*
%TO.P,U1,36*%
%TO.N,Net-(U1-Pad36)*%
X97015000Y-155306000D03*
%TO.P,U1,35*%
%TO.N,GND*%
X97815000Y-155306000D03*
%TO.P,U1,34*%
%TO.N,+5V*%
X98615000Y-155306000D03*
D14*
%TO.P,U1,33*%
%TO.N,Net-(R4-Pad2)*%
X100315000Y-153606000D03*
%TO.P,U1,32*%
%TO.N,Net-(U1-Pad32)*%
X100315000Y-152806000D03*
%TO.P,U1,31*%
%TO.N,Net-(U1-Pad31)*%
X100315000Y-152006000D03*
%TO.P,U1,30*%
%TO.N,Net-(U1-Pad30)*%
X100315000Y-151206000D03*
%TO.P,U1,29*%
%TO.N,ROW1*%
X100315000Y-150406000D03*
%TO.P,U1,28*%
%TO.N,COL0*%
X100315000Y-149606000D03*
%TO.P,U1,27*%
%TO.N,COL1*%
X100315000Y-148806000D03*
%TO.P,U1,26*%
%TO.N,ROW0*%
X100315000Y-148006000D03*
%TO.P,U1,25*%
%TO.N,Net-(U1-Pad25)*%
X100315000Y-147206000D03*
%TO.P,U1,24*%
%TO.N,+5V*%
X100315000Y-146406000D03*
%TO.P,U1,23*%
%TO.N,GND*%
X100315000Y-145606000D03*
D13*
%TO.P,U1,22*%
%TO.N,Net-(U1-Pad22)*%
X98615000Y-143906000D03*
%TO.P,U1,21*%
%TO.N,Net-(U1-Pad21)*%
X97815000Y-143906000D03*
%TO.P,U1,20*%
%TO.N,Net-(U1-Pad20)*%
X97015000Y-143906000D03*
%TO.P,U1,19*%
%TO.N,Net-(U1-Pad19)*%
X96215000Y-143906000D03*
%TO.P,U1,18*%
%TO.N,Net-(U1-Pad18)*%
X95415000Y-143906000D03*
%TO.P,U1,17*%
%TO.N,Net-(C1-Pad1)*%
X94615000Y-143906000D03*
%TO.P,U1,16*%
%TO.N,Net-(C3-Pad1)*%
X93815000Y-143906000D03*
%TO.P,U1,15*%
%TO.N,GND*%
X93015000Y-143906000D03*
%TO.P,U1,14*%
%TO.N,+5V*%
X92215000Y-143906000D03*
%TO.P,U1,13*%
%TO.N,Net-(R3-Pad2)*%
X91415000Y-143906000D03*
%TO.P,U1,12*%
%TO.N,Net-(U1-Pad12)*%
X90615000Y-143906000D03*
D14*
%TO.P,U1,11*%
%TO.N,Net-(U1-Pad11)*%
X88915000Y-145606000D03*
%TO.P,U1,10*%
%TO.N,Net-(U1-Pad10)*%
X88915000Y-146406000D03*
%TO.P,U1,9*%
%TO.N,Net-(U1-Pad9)*%
X88915000Y-147206000D03*
%TO.P,U1,8*%
%TO.N,Net-(U1-Pad8)*%
X88915000Y-148006000D03*
%TO.P,U1,7*%
%TO.N,+5V*%
X88915000Y-148806000D03*
%TO.P,U1,6*%
%TO.N,Net-(C6-Pad1)*%
X88915000Y-149606000D03*
%TO.P,U1,5*%
%TO.N,GND*%
X88915000Y-150406000D03*
%TO.P,U1,4*%
%TO.N,Net-(R2-Pad1)*%
X88915000Y-151206000D03*
%TO.P,U1,3*%
%TO.N,Net-(R1-Pad1)*%
X88915000Y-152006000D03*
%TO.P,U1,2*%
%TO.N,+5V*%
X88915000Y-152806000D03*
%TO.P,U1,1*%
%TO.N,Net-(U1-Pad1)*%
X88915000Y-153606000D03*
%TD*%
D15*
%TO.P,SW1,4*%
%TO.N,N/C*%
X82018750Y-161206250D03*
%TO.P,SW1,3*%
X78318750Y-167406250D03*
%TO.P,SW1,2*%
%TO.N,Net-(R3-Pad2)*%
X78318750Y-161206250D03*
%TO.P,SW1,1*%
%TO.N,GND*%
X82018750Y-167406250D03*
%TD*%
%TO.P,R4,2*%
%TO.N,Net-(R4-Pad2)*%
%TA.AperFunction,SMDPad,CuDef*%
G36*
G01*
X102793750Y-167137501D02*
X102793750Y-166237499D01*
G75*
G02*
X103043749Y-165987500I249999J0D01*
G01*
X103568751Y-165987500D01*
G75*
G02*
X103818750Y-166237499I0J-249999D01*
G01*
X103818750Y-167137501D01*
G75*
G02*
X103568751Y-167387500I-249999J0D01*
G01*
X103043749Y-167387500D01*
G75*
G02*
X102793750Y-167137501I0J249999D01*
G01*
G37*
%TD.AperFunction*%
%TO.P,R4,1*%
%TO.N,GND*%
%TA.AperFunction,SMDPad,CuDef*%
G36*
G01*
X100968750Y-167137501D02*
X100968750Y-166237499D01*
G75*
G02*
X101218749Y-165987500I249999J0D01*
G01*
X101743751Y-165987500D01*
G75*
G02*
X101993750Y-166237499I0J-249999D01*
G01*
X101993750Y-167137501D01*
G75*
G02*
X101743751Y-167387500I-249999J0D01*
G01*
X101218749Y-167387500D01*
G75*
G02*
X100968750Y-167137501I0J249999D01*
G01*
G37*
%TD.AperFunction*%
%TD*%
%TO.P,R3,2*%
%TO.N,Net-(R3-Pad2)*%
%TA.AperFunction,SMDPad,CuDef*%
G36*
G01*
X80512499Y-157562500D02*
X81412501Y-157562500D01*
G75*
G02*
X81662500Y-157812499I0J-249999D01*
G01*
X81662500Y-158337501D01*
G75*
G02*
X81412501Y-158587500I-249999J0D01*
G01*
X80512499Y-158587500D01*
G75*
G02*
X80262500Y-158337501I0J249999D01*
G01*
X80262500Y-157812499D01*
G75*
G02*
X80512499Y-157562500I249999J0D01*
G01*
G37*
%TD.AperFunction*%
%TO.P,R3,1*%
%TO.N,+5V*%
%TA.AperFunction,SMDPad,CuDef*%
G36*
G01*
X80512499Y-155737500D02*
X81412501Y-155737500D01*
G75*
G02*
X81662500Y-155987499I0J-249999D01*
G01*
X81662500Y-156512501D01*
G75*
G02*
X81412501Y-156762500I-249999J0D01*
G01*
X80512499Y-156762500D01*
G75*
G02*
X80262500Y-156512501I0J249999D01*
G01*
X80262500Y-155987499D01*
G75*
G02*
X80512499Y-155737500I249999J0D01*
G01*
G37*
%TD.AperFunction*%
%TD*%
%TO.P,R2,2*%
%TO.N,D+*%
%TA.AperFunction,SMDPad,CuDef*%
G36*
G01*
X82206251Y-141681250D02*
X81306249Y-141681250D01*
G75*
G02*
X81056250Y-141431251I0J249999D01*
G01*
X81056250Y-140906249D01*
G75*
G02*
X81306249Y-140656250I249999J0D01*
G01*
X82206251Y-140656250D01*
G75*
G02*
X82456250Y-140906249I0J-249999D01*
G01*
X82456250Y-141431251D01*
G75*
G02*
X82206251Y-141681250I-249999J0D01*
G01*
G37*
%TD.AperFunction*%
%TO.P,R2,1*%
%TO.N,Net-(R2-Pad1)*%
%TA.AperFunction,SMDPad,CuDef*%
G36*
G01*
X82206251Y-143506250D02*
X81306249Y-143506250D01*
G75*
G02*
X81056250Y-143256251I0J249999D01*
G01*
X81056250Y-142731249D01*
G75*
G02*
X81306249Y-142481250I249999J0D01*
G01*
X82206251Y-142481250D01*
G75*
G02*
X82456250Y-142731249I0J-249999D01*
G01*
X82456250Y-143256251D01*
G75*
G02*
X82206251Y-143506250I-249999J0D01*
G01*
G37*
%TD.AperFunction*%
%TD*%
%TO.P,R1,2*%
%TO.N,D-*%
%TA.AperFunction,SMDPad,CuDef*%
G36*
G01*
X79825001Y-141681250D02*
X78924999Y-141681250D01*
G75*
G02*
X78675000Y-141431251I0J249999D01*
G01*
X78675000Y-140906249D01*
G75*
G02*
X78924999Y-140656250I249999J0D01*
G01*
X79825001Y-140656250D01*
G75*
G02*
X80075000Y-140906249I0J-249999D01*
G01*
X80075000Y-141431251D01*
G75*
G02*
X79825001Y-141681250I-249999J0D01*
G01*
G37*
%TD.AperFunction*%
%TO.P,R1,1*%
%TO.N,Net-(R1-Pad1)*%
%TA.AperFunction,SMDPad,CuDef*%
G36*
G01*
X79825001Y-143506250D02*
X78924999Y-143506250D01*
G75*
G02*
X78675000Y-143256251I0J249999D01*
G01*
X78675000Y-142731249D01*
G75*
G02*
X78924999Y-142481250I249999J0D01*
G01*
X79825001Y-142481250D01*
G75*
G02*
X80075000Y-142731249I0J-249999D01*
G01*
X80075000Y-143256251D01*
G75*
G02*
X79825001Y-143506250I-249999J0D01*
G01*
G37*
%TD.AperFunction*%
%TD*%
D16*
%TO.P,MX4,1*%
%TO.N,COL1*%
X132437500Y-155543750D03*
%TA.AperFunction,ComponentPad*%
G36*
G01*
X130376188Y-157841100D02*
X130376183Y-157841095D01*
G75*
G02*
X130290155Y-156252433I751317J837345D01*
G01*
X131600157Y-154792433D01*
G75*
G02*
X133188819Y-154706405I837345J-751317D01*
G01*
X133188819Y-154706405D01*
G75*
G02*
X133274847Y-156295067I-751317J-837345D01*
G01*
X131964845Y-157755067D01*
G75*
G02*
X130376183Y-157841095I-837345J751317D01*
G01*
G37*
%TD.AperFunction*%
%TO.P,MX4,2*%
%TO.N,Net-(D4-Pad2)*%
X137477500Y-154463750D03*
%TA.AperFunction,ComponentPad*%
G36*
G01*
X137360983Y-156166145D02*
X137360097Y-156166084D01*
G75*
G02*
X136315166Y-154966347I77403J1122334D01*
G01*
X136355166Y-154386347D01*
G75*
G02*
X137554903Y-153341416I1122334J-77403D01*
G01*
X137554903Y-153341416D01*
G75*
G02*
X138599834Y-154541153I-77403J-1122334D01*
G01*
X138559834Y-155121153D01*
G75*
G02*
X137360097Y-156166084I-1122334J77403D01*
G01*
G37*
%TD.AperFunction*%
%TD*%
%TO.P,MX3,1*%
%TO.N,COL1*%
X132437500Y-136493750D03*
%TA.AperFunction,ComponentPad*%
G36*
G01*
X130376188Y-138791100D02*
X130376183Y-138791095D01*
G75*
G02*
X130290155Y-137202433I751317J837345D01*
G01*
X131600157Y-135742433D01*
G75*
G02*
X133188819Y-135656405I837345J-751317D01*
G01*
X133188819Y-135656405D01*
G75*
G02*
X133274847Y-137245067I-751317J-837345D01*
G01*
X131964845Y-138705067D01*
G75*
G02*
X130376183Y-138791095I-837345J751317D01*
G01*
G37*
%TD.AperFunction*%
%TO.P,MX3,2*%
%TO.N,Net-(D3-Pad2)*%
X137477500Y-135413750D03*
%TA.AperFunction,ComponentPad*%
G36*
G01*
X137360983Y-137116145D02*
X137360097Y-137116084D01*
G75*
G02*
X136315166Y-135916347I77403J1122334D01*
G01*
X136355166Y-135336347D01*
G75*
G02*
X137554903Y-134291416I1122334J-77403D01*
G01*
X137554903Y-134291416D01*
G75*
G02*
X138599834Y-135491153I-77403J-1122334D01*
G01*
X138559834Y-136071153D01*
G75*
G02*
X137360097Y-137116084I-1122334J77403D01*
G01*
G37*
%TD.AperFunction*%
%TD*%
%TO.P,MX2,1*%
%TO.N,COL0*%
X113387500Y-155543750D03*
%TA.AperFunction,ComponentPad*%
G36*
G01*
X111326188Y-157841100D02*
X111326183Y-157841095D01*
G75*
G02*
X111240155Y-156252433I751317J837345D01*
G01*
X112550157Y-154792433D01*
G75*
G02*
X114138819Y-154706405I837345J-751317D01*
G01*
X114138819Y-154706405D01*
G75*
G02*
X114224847Y-156295067I-751317J-837345D01*
G01*
X112914845Y-157755067D01*
G75*
G02*
X111326183Y-157841095I-837345J751317D01*
G01*
G37*
%TD.AperFunction*%
%TO.P,MX2,2*%
%TO.N,Net-(D2-Pad2)*%
X118427500Y-154463750D03*
%TA.AperFunction,ComponentPad*%
G36*
G01*
X118310983Y-156166145D02*
X118310097Y-156166084D01*
G75*
G02*
X117265166Y-154966347I77403J1122334D01*
G01*
X117305166Y-154386347D01*
G75*
G02*
X118504903Y-153341416I1122334J-77403D01*
G01*
X118504903Y-153341416D01*
G75*
G02*
X119549834Y-154541153I-77403J-1122334D01*
G01*
X119509834Y-155121153D01*
G75*
G02*
X118310097Y-156166084I-1122334J77403D01*
G01*
G37*
%TD.AperFunction*%
%TD*%
%TO.P,MX1,1*%
%TO.N,COL0*%
X113387500Y-136493750D03*
%TA.AperFunction,ComponentPad*%
G36*
G01*
X111326188Y-138791100D02*
X111326183Y-138791095D01*
G75*
G02*
X111240155Y-137202433I751317J837345D01*
G01*
X112550157Y-135742433D01*
G75*
G02*
X114138819Y-135656405I837345J-751317D01*
G01*
X114138819Y-135656405D01*
G75*
G02*
X114224847Y-137245067I-751317J-837345D01*
G01*
X112914845Y-138705067D01*
G75*
G02*
X111326183Y-138791095I-837345J751317D01*
G01*
G37*
%TD.AperFunction*%
%TO.P,MX1,2*%
%TO.N,Net-(D1-Pad2)*%
X118427500Y-135413750D03*
%TA.AperFunction,ComponentPad*%
G36*
G01*
X118310983Y-137116145D02*
X118310097Y-137116084D01*
G75*
G02*
X117265166Y-135916347I77403J1122334D01*
G01*
X117305166Y-135336347D01*
G75*
G02*
X118504903Y-134291416I1122334J-77403D01*
G01*
X118504903Y-134291416D01*
G75*
G02*
X119549834Y-135491153I-77403J-1122334D01*
G01*
X119509834Y-136071153D01*
G75*
G02*
X118310097Y-137116084I-1122334J77403D01*
G01*
G37*
%TD.AperFunction*%
%TD*%
%TO.P,F1,2*%
%TO.N,VCC*%
%TA.AperFunction,SMDPad,CuDef*%
G36*
G01*
X76218750Y-145425000D02*
X76218750Y-146675000D01*
G75*
G02*
X75968750Y-146925000I-250000J0D01*
G01*
X75218750Y-146925000D01*
G75*
G02*
X74968750Y-146675000I0J250000D01*
G01*
X74968750Y-145425000D01*
G75*
G02*
X75218750Y-145175000I250000J0D01*
G01*
X75968750Y-145175000D01*
G75*
G02*
X76218750Y-145425000I0J-250000D01*
G01*
G37*
%TD.AperFunction*%
%TO.P,F1,1*%
%TO.N,+5V*%
%TA.AperFunction,SMDPad,CuDef*%
G36*
G01*
X79018750Y-145425000D02*
X79018750Y-146675000D01*
G75*
G02*
X78768750Y-146925000I-250000J0D01*
G01*
X78018750Y-146925000D01*
G75*
G02*
X77768750Y-146675000I0J250000D01*
G01*
X77768750Y-145425000D01*
G75*
G02*
X78018750Y-145175000I250000J0D01*
G01*
X78768750Y-145175000D01*
G75*
G02*
X79018750Y-145425000I0J-250000D01*
G01*
G37*
%TD.AperFunction*%
%TD*%
D17*
%TO.P,D4,2*%
%TO.N,Net-(D4-Pad2)*%
X142875000Y-157893750D03*
%TO.P,D4,1*%
%TO.N,ROW1*%
X142875000Y-161193750D03*
%TD*%
%TO.P,D3,2*%
%TO.N,Net-(D3-Pad2)*%
X142875000Y-138843750D03*
%TO.P,D3,1*%
%TO.N,ROW0*%
X142875000Y-142143750D03*
%TD*%
%TO.P,D2,2*%
%TO.N,Net-(D2-Pad2)*%
X123825000Y-157893750D03*
%TO.P,D2,1*%
%TO.N,ROW1*%
X123825000Y-161193750D03*
%TD*%
%TO.P,D1,2*%
%TO.N,Net-(D1-Pad2)*%
X123825000Y-138843750D03*
%TO.P,D1,1*%
%TO.N,ROW0*%
X123825000Y-142143750D03*
%TD*%
%TO.P,C7,2*%
%TO.N,GND*%
%TA.AperFunction,SMDPad,CuDef*%
G36*
G01*
X97975000Y-158148000D02*
X97975000Y-159098000D01*
G75*
G02*
X97725000Y-159348000I-250000J0D01*
G01*
X97225000Y-159348000D01*
G75*
G02*
X96975000Y-159098000I0J250000D01*
G01*
X96975000Y-158148000D01*
G75*
G02*
X97225000Y-157898000I250000J0D01*
G01*
X97725000Y-157898000D01*
G75*
G02*
X97975000Y-158148000I0J-250000D01*
G01*
G37*
%TD.AperFunction*%
%TO.P,C7,1*%
%TO.N,+5V*%
%TA.AperFunction,SMDPad,CuDef*%
G36*
G01*
X99875000Y-158148000D02*
X99875000Y-159098000D01*
G75*
G02*
X99625000Y-159348000I-250000J0D01*
G01*
X99125000Y-159348000D01*
G75*
G02*
X98875000Y-159098000I0J250000D01*
G01*
X98875000Y-158148000D01*
G75*
G02*
X99125000Y-157898000I250000J0D01*
G01*
X99625000Y-157898000D01*
G75*
G02*
X99875000Y-158148000I0J-250000D01*
G01*
G37*
%TD.AperFunction*%
%TD*%
%TO.P,C6,2*%
%TO.N,GND*%
%TA.AperFunction,SMDPad,CuDef*%
G36*
G01*
X84456250Y-149675000D02*
X85406250Y-149675000D01*
G75*
G02*
X85656250Y-149925000I0J-250000D01*
G01*
X85656250Y-150425000D01*
G75*
G02*
X85406250Y-150675000I-250000J0D01*
G01*
X84456250Y-150675000D01*
G75*
G02*
X84206250Y-150425000I0J250000D01*
G01*
X84206250Y-149925000D01*
G75*
G02*
X84456250Y-149675000I250000J0D01*
G01*
G37*
%TD.AperFunction*%
%TO.P,C6,1*%
%TO.N,Net-(C6-Pad1)*%
%TA.AperFunction,SMDPad,CuDef*%
G36*
G01*
X84456250Y-147775000D02*
X85406250Y-147775000D01*
G75*
G02*
X85656250Y-148025000I0J-250000D01*
G01*
X85656250Y-148525000D01*
G75*
G02*
X85406250Y-148775000I-250000J0D01*
G01*
X84456250Y-148775000D01*
G75*
G02*
X84206250Y-148525000I0J250000D01*
G01*
X84206250Y-148025000D01*
G75*
G02*
X84456250Y-147775000I250000J0D01*
G01*
G37*
%TD.AperFunction*%
%TD*%
%TO.P,C5,2*%
%TO.N,GND*%
%TA.AperFunction,SMDPad,CuDef*%
G36*
G01*
X97975000Y-160942000D02*
X97975000Y-161892000D01*
G75*
G02*
X97725000Y-162142000I-250000J0D01*
G01*
X97225000Y-162142000D01*
G75*
G02*
X96975000Y-161892000I0J250000D01*
G01*
X96975000Y-160942000D01*
G75*
G02*
X97225000Y-160692000I250000J0D01*
G01*
X97725000Y-160692000D01*
G75*
G02*
X97975000Y-160942000I0J-250000D01*
G01*
G37*
%TD.AperFunction*%
%TO.P,C5,1*%
%TO.N,+5V*%
%TA.AperFunction,SMDPad,CuDef*%
G36*
G01*
X99875000Y-160942000D02*
X99875000Y-161892000D01*
G75*
G02*
X99625000Y-162142000I-250000J0D01*
G01*
X99125000Y-162142000D01*
G75*
G02*
X98875000Y-161892000I0J250000D01*
G01*
X98875000Y-160942000D01*
G75*
G02*
X99125000Y-160692000I250000J0D01*
G01*
X99625000Y-160692000D01*
G75*
G02*
X99875000Y-160942000I0J-250000D01*
G01*
G37*
%TD.AperFunction*%
%TD*%
%TO.P,C4,2*%
%TO.N,GND*%
%TA.AperFunction,SMDPad,CuDef*%
G36*
G01*
X84481250Y-145575000D02*
X84481250Y-146525000D01*
G75*
G02*
X84231250Y-146775000I-250000J0D01*
G01*
X83731250Y-146775000D01*
G75*
G02*
X83481250Y-146525000I0J250000D01*
G01*
X83481250Y-145575000D01*
G75*
G02*
X83731250Y-145325000I250000J0D01*
G01*
X84231250Y-145325000D01*
G75*
G02*
X84481250Y-145575000I0J-250000D01*
G01*
G37*
%TD.AperFunction*%
%TO.P,C4,1*%
%TO.N,+5V*%
%TA.AperFunction,SMDPad,CuDef*%
G36*
G01*
X86381250Y-145575000D02*
X86381250Y-146525000D01*
G75*
G02*
X86131250Y-146775000I-250000J0D01*
G01*
X85631250Y-146775000D01*
G75*
G02*
X85381250Y-146525000I0J250000D01*
G01*
X85381250Y-145575000D01*
G75*
G02*
X85631250Y-145325000I250000J0D01*
G01*
X86131250Y-145325000D01*
G75*
G02*
X86381250Y-145575000I0J-250000D01*
G01*
G37*
%TD.AperFunction*%
%TD*%
%TO.P,C3,2*%
%TO.N,GND*%
%TA.AperFunction,SMDPad,CuDef*%
G36*
G01*
X90012500Y-139356250D02*
X90962500Y-139356250D01*
G75*
G02*
X91212500Y-139606250I0J-250000D01*
G01*
X91212500Y-140106250D01*
G75*
G02*
X90962500Y-140356250I-250000J0D01*
G01*
X90012500Y-140356250D01*
G75*
G02*
X89762500Y-140106250I0J250000D01*
G01*
X89762500Y-139606250D01*
G75*
G02*
X90012500Y-139356250I250000J0D01*
G01*
G37*
%TD.AperFunction*%
%TO.P,C3,1*%
%TO.N,Net-(C3-Pad1)*%
%TA.AperFunction,SMDPad,CuDef*%
G36*
G01*
X90012500Y-137456250D02*
X90962500Y-137456250D01*
G75*
G02*
X91212500Y-137706250I0J-250000D01*
G01*
X91212500Y-138206250D01*
G75*
G02*
X90962500Y-138456250I-250000J0D01*
G01*
X90012500Y-138456250D01*
G75*
G02*
X89762500Y-138206250I0J250000D01*
G01*
X89762500Y-137706250D01*
G75*
G02*
X90012500Y-137456250I250000J0D01*
G01*
G37*
%TD.AperFunction*%
%TD*%
%TO.P,C2,2*%
%TO.N,GND*%
%TA.AperFunction,SMDPad,CuDef*%
G36*
G01*
X91636000Y-158844000D02*
X91636000Y-157894000D01*
G75*
G02*
X91886000Y-157644000I250000J0D01*
G01*
X92386000Y-157644000D01*
G75*
G02*
X92636000Y-157894000I0J-250000D01*
G01*
X92636000Y-158844000D01*
G75*
G02*
X92386000Y-159094000I-250000J0D01*
G01*
X91886000Y-159094000D01*
G75*
G02*
X91636000Y-158844000I0J250000D01*
G01*
G37*
%TD.AperFunction*%
%TO.P,C2,1*%
%TO.N,+5V*%
%TA.AperFunction,SMDPad,CuDef*%
G36*
G01*
X89736000Y-158844000D02*
X89736000Y-157894000D01*
G75*
G02*
X89986000Y-157644000I250000J0D01*
G01*
X90486000Y-157644000D01*
G75*
G02*
X90736000Y-157894000I0J-250000D01*
G01*
X90736000Y-158844000D01*
G75*
G02*
X90486000Y-159094000I-250000J0D01*
G01*
X89986000Y-159094000D01*
G75*
G02*
X89736000Y-158844000I0J250000D01*
G01*
G37*
%TD.AperFunction*%
%TD*%
%TO.P,C1,2*%
%TO.N,GND*%
%TA.AperFunction,SMDPad,CuDef*%
G36*
G01*
X98900000Y-138456250D02*
X97950000Y-138456250D01*
G75*
G02*
X97700000Y-138206250I0J250000D01*
G01*
X97700000Y-137706250D01*
G75*
G02*
X97950000Y-137456250I250000J0D01*
G01*
X98900000Y-137456250D01*
G75*
G02*
X99150000Y-137706250I0J-250000D01*
G01*
X99150000Y-138206250D01*
G75*
G02*
X98900000Y-138456250I-250000J0D01*
G01*
G37*
%TD.AperFunction*%
%TO.P,C1,1*%
%TO.N,Net-(C1-Pad1)*%
%TA.AperFunction,SMDPad,CuDef*%
G36*
G01*
X98900000Y-140356250D02*
X97950000Y-140356250D01*
G75*
G02*
X97700000Y-140106250I0J250000D01*
G01*
X97700000Y-139606250D01*
G75*
G02*
X97950000Y-139356250I250000J0D01*
G01*
X98900000Y-139356250D01*
G75*
G02*
X99150000Y-139606250I0J-250000D01*
G01*
X99150000Y-140106250D01*
G75*
G02*
X98900000Y-140356250I-250000J0D01*
G01*
G37*
%TD.AperFunction*%
%TD*%
D18*
%TO.N,GND*%
X102393750Y-164306250D03*
X103187500Y-140493750D03*
%TO.N,+5V*%
X88106250Y-160337500D03*
X101600000Y-162718750D03*
X102393750Y-146050000D03*
X87312500Y-141287500D03*
X80168750Y-150812500D03*
X84931250Y-144462500D03*
%TO.N,Net-(R3-Pad2)*%
X84137500Y-157956250D03*
X86518750Y-143668750D03*
%TD*%
D19*
%TO.N,GND*%
X97815000Y-158283000D02*
X97815000Y-155306000D01*
X97475000Y-158623000D02*
X97815000Y-158283000D01*
X92390000Y-158623000D02*
X92136000Y-158369000D01*
X97475000Y-158623000D02*
X92390000Y-158623000D01*
X97475000Y-161417000D02*
X97475000Y-158623000D01*
X95656250Y-137956250D02*
X95556250Y-138056250D01*
X98425000Y-137956250D02*
X95656250Y-137956250D01*
X93659152Y-139756250D02*
X93356250Y-139756250D01*
D20*
X95359152Y-138056250D02*
X93659152Y-139756250D01*
D19*
X95556250Y-138056250D02*
X95359152Y-138056250D01*
X83856500Y-139856250D02*
X90487500Y-139856250D01*
X82562500Y-138562250D02*
X83856500Y-139856250D01*
X82562500Y-137056250D02*
X82562500Y-138562250D01*
X93015000Y-142383750D02*
X93015000Y-143906000D01*
X90487500Y-139856250D02*
X93015000Y-142383750D01*
X101481250Y-165423250D02*
X97475000Y-161417000D01*
X101481250Y-166687500D02*
X101481250Y-165423250D01*
X95556250Y-137625000D02*
X95556250Y-138056250D01*
X94456250Y-136525000D02*
X95556250Y-137625000D01*
X89693750Y-136525000D02*
X94456250Y-136525000D01*
X88900000Y-137318750D02*
X89693750Y-136525000D01*
X88900000Y-138268750D02*
X88900000Y-137318750D01*
X90487500Y-139856250D02*
X88900000Y-138268750D01*
X83482421Y-148726171D02*
X84931250Y-150175000D01*
X83482421Y-146548829D02*
X83482421Y-148726171D01*
X83981250Y-146050000D02*
X83482421Y-146548829D01*
X85162250Y-150406000D02*
X88915000Y-150406000D01*
X84931250Y-150175000D02*
X85162250Y-150406000D01*
X83098750Y-167406250D02*
X92136000Y-158369000D01*
X82018750Y-167406250D02*
X83098750Y-167406250D01*
X91415000Y-157648000D02*
X91415000Y-155306000D01*
X92136000Y-158369000D02*
X91415000Y-157648000D01*
X100315000Y-139846250D02*
X98425000Y-137956250D01*
X83981250Y-139981000D02*
X83856500Y-139856250D01*
X83981250Y-146050000D02*
X83981250Y-139981000D01*
X101481250Y-165218750D02*
X102393750Y-164306250D01*
X101481250Y-166687500D02*
X101481250Y-165218750D01*
X100617500Y-140493750D02*
X100315000Y-140796250D01*
X103187500Y-140493750D02*
X100617500Y-140493750D01*
X100315000Y-140796250D02*
X100315000Y-139846250D01*
X100315000Y-145606000D02*
X100315000Y-140796250D01*
D20*
%TO.N,Net-(C1-Pad1)*%
X95656250Y-139856250D02*
X95556250Y-139756250D01*
X98425000Y-139856250D02*
X95656250Y-139856250D01*
X94615000Y-140697500D02*
X94615000Y-143906000D01*
X95556250Y-139756250D02*
X94615000Y-140697500D01*
D19*
%TO.N,+5V*%
X99375000Y-156066000D02*
X98615000Y-155306000D01*
X99375000Y-158623000D02*
X99375000Y-156066000D01*
X99375000Y-161417000D02*
X99375000Y-158623000D01*
X90236000Y-155685000D02*
X90615000Y-155306000D01*
X90236000Y-158369000D02*
X90236000Y-155685000D01*
X87912250Y-148806000D02*
X88915000Y-148806000D01*
X85881250Y-146775000D02*
X87912250Y-148806000D01*
X85881250Y-146050000D02*
X85881250Y-146775000D01*
X78393750Y-153681250D02*
X80962500Y-156250000D01*
X84406500Y-152806000D02*
X88915000Y-152806000D01*
X80962500Y-156250000D02*
X84406500Y-152806000D01*
X88887098Y-155306000D02*
X90615000Y-155306000D01*
X87774499Y-154193401D02*
X88887098Y-155306000D01*
X87774499Y-153018599D02*
X87774499Y-154193401D01*
X87987098Y-152806000D02*
X87774499Y-153018599D01*
X88915000Y-152806000D02*
X87987098Y-152806000D01*
X90701859Y-141563740D02*
X87036260Y-141563740D01*
X92215000Y-143076881D02*
X90701859Y-141563740D01*
X92215000Y-143906000D02*
X92215000Y-143076881D01*
X85382421Y-145551171D02*
X85881250Y-146050000D01*
X87036260Y-141563740D02*
X85382421Y-143217579D01*
X90074750Y-158369000D02*
X88106250Y-160337500D01*
X90236000Y-158369000D02*
X90074750Y-158369000D01*
X101600000Y-160848000D02*
X99375000Y-158623000D01*
X101600000Y-162718750D02*
X101600000Y-160848000D01*
X102037750Y-146406000D02*
X102393750Y-146050000D01*
X100315000Y-146406000D02*
X102037750Y-146406000D01*
X79981250Y-150625000D02*
X80168750Y-150812500D01*
X78393750Y-150625000D02*
X79981250Y-150625000D01*
X78393750Y-146050000D02*
X78393750Y-150625000D01*
X78393750Y-150625000D02*
X78393750Y-153681250D01*
X85039842Y-144462500D02*
X85382421Y-144119921D01*
X84931250Y-144462500D02*
X85039842Y-144462500D01*
X85382421Y-144119921D02*
X85382421Y-145551171D01*
X85382421Y-143217579D02*
X85382421Y-144119921D01*
D20*
%TO.N,Net-(C3-Pad1)*%
X93256250Y-137956250D02*
X93356250Y-138056250D01*
X90487500Y-137956250D02*
X93256250Y-137956250D01*
X93815000Y-142103602D02*
X93815000Y-143906000D01*
X92329249Y-140617851D02*
X93815000Y-142103602D01*
X92329249Y-138129251D02*
X92329249Y-140617851D01*
X92402250Y-138056250D02*
X92329249Y-138129251D01*
X93356250Y-138056250D02*
X92402250Y-138056250D01*
%TO.N,Net-(C6-Pad1)*%
X86262250Y-149606000D02*
X88915000Y-149606000D01*
X84931250Y-148275000D02*
X86262250Y-149606000D01*
%TO.N,Net-(D1-Pad2)*%
X121237500Y-138843750D02*
X118387500Y-135993750D01*
X123825000Y-138843750D02*
X121237500Y-138843750D01*
%TO.N,ROW0*%
X124495901Y-142814651D02*
X123825000Y-142143750D01*
X142204099Y-142814651D02*
X124495901Y-142814651D01*
X142875000Y-142143750D02*
X142204099Y-142814651D01*
X117962750Y-148006000D02*
X100315000Y-148006000D01*
X123825000Y-142143750D02*
X117962750Y-148006000D01*
%TO.N,Net-(D2-Pad2)*%
X121237500Y-157893750D02*
X118387500Y-155043750D01*
X123825000Y-157893750D02*
X121237500Y-157893750D01*
%TO.N,ROW1*%
X142204099Y-161864651D02*
X142875000Y-161193750D01*
X124495901Y-161864651D02*
X142204099Y-161864651D01*
X123825000Y-161193750D02*
X124495901Y-161864651D01*
X101319000Y-150406000D02*
X108743750Y-157830750D01*
X100315000Y-150406000D02*
X101319000Y-150406000D01*
X108743750Y-157830750D02*
X108743750Y-160337500D01*
X123154099Y-161864651D02*
X123825000Y-161193750D01*
X110270901Y-161864651D02*
X123154099Y-161864651D01*
X108743750Y-160337500D02*
X110270901Y-161864651D01*
%TO.N,Net-(D3-Pad2)*%
X140287500Y-138843750D02*
X137437500Y-135993750D01*
X142875000Y-138843750D02*
X140287500Y-138843750D01*
%TO.N,Net-(D4-Pad2)*%
X140907500Y-157893750D02*
X137477500Y-154463750D01*
X142875000Y-157893750D02*
X140907500Y-157893750D01*
D19*
%TO.N,VCC*%
X79362500Y-138125000D02*
X79362500Y-137056250D01*
X75593750Y-141893750D02*
X79362500Y-138125000D01*
X75593750Y-146050000D02*
X75593750Y-141893750D01*
D20*
%TO.N,COL0*%
X112077500Y-137953750D02*
X111918750Y-138112500D01*
X104362250Y-149606000D02*
X100315000Y-149606000D01*
X111760000Y-157003750D02*
X104362250Y-149606000D01*
X112077500Y-157003750D02*
X111760000Y-157003750D01*
%TO.N,COL1*%
X122929750Y-148806000D02*
X131127500Y-157003750D01*
X100315000Y-148806000D02*
X122929750Y-148806000D01*
%TO.N,D-*%
X80162500Y-140381250D02*
X79375000Y-141168750D01*
X80162500Y-137056250D02*
X80162500Y-140381250D01*
%TO.N,Net-(R1-Pad1)*%
X79375000Y-142993750D02*
X79375000Y-144462500D01*
X79375000Y-144462500D02*
X80168750Y-145256250D01*
X80168750Y-145256250D02*
X80168750Y-148431250D01*
X83743500Y-152006000D02*
X88915000Y-152006000D01*
X80168750Y-148431250D02*
X83743500Y-152006000D01*
%TO.N,D+*%
X80962500Y-140375000D02*
X81756250Y-141168750D01*
X80962500Y-137056250D02*
X80962500Y-140375000D01*
%TO.N,Net-(R2-Pad1)*%
X81756250Y-142993750D02*
X81756250Y-144462500D01*
X81756250Y-144462500D02*
X80962500Y-145256250D01*
X80962500Y-145256250D02*
X80962500Y-148431250D01*
X83737250Y-151206000D02*
X88915000Y-151206000D01*
X80962500Y-148431250D02*
X83737250Y-151206000D01*
%TO.N,Net-(R3-Pad2)*%
X78318750Y-160718750D02*
X80962500Y-158075000D01*
X78318750Y-161206250D02*
X78318750Y-160718750D01*
X84018750Y-158075000D02*
X84137500Y-157956250D01*
X80962500Y-158075000D02*
X84018750Y-158075000D01*
X86518750Y-143668750D02*
X86518750Y-142875000D01*
X86518750Y-142875000D02*
X87312500Y-142081250D01*
X87312500Y-142081250D02*
X90487500Y-142081250D01*
X91415000Y-143008750D02*
X91415000Y-143906000D01*
X90487500Y-142081250D02*
X91415000Y-143008750D01*
%TO.N,Net-(R4-Pad2)*%
X103306250Y-156597250D02*
X100315000Y-153606000D01*
X103306250Y-166687500D02*
X103306250Y-156597250D01*
%TD*%
%TO.N,GND*%
X75848987Y-131765139D02*
X75827500Y-131983300D01*
X75827500Y-133129199D01*
X75848987Y-133347360D01*
X75933901Y-133627283D01*
X76071794Y-133885263D01*
X76257366Y-134111384D01*
X76483486Y-134296956D01*
X76741466Y-134434849D01*
X77021389Y-134519763D01*
X77312500Y-134548435D01*
X77603610Y-134519763D01*
X77883533Y-134434849D01*
X78141513Y-134296956D01*
X78367634Y-134111384D01*
X78553206Y-133885264D01*
X78691099Y-133627284D01*
X78776013Y-133347361D01*
X78797500Y-133129200D01*
X78797500Y-131983300D01*
X78776013Y-131765139D01*
X78734640Y-131628750D01*
X83190360Y-131628750D01*
X83148987Y-131765139D01*
X83127500Y-131983300D01*
X83127500Y-133129199D01*
X83148987Y-133347360D01*
X83233901Y-133627283D01*
X83371794Y-133885263D01*
X83557366Y-134111384D01*
X83783486Y-134296956D01*
X84041466Y-134434849D01*
X84321389Y-134519763D01*
X84612500Y-134548435D01*
X84903610Y-134519763D01*
X85183533Y-134434849D01*
X85441513Y-134296956D01*
X85667634Y-134111384D01*
X85853206Y-133885264D01*
X85991099Y-133627284D01*
X86076013Y-133347361D01*
X86097500Y-133129200D01*
X86097500Y-131983300D01*
X86076013Y-131765139D01*
X86034640Y-131628750D01*
X106235500Y-131628750D01*
X106235500Y-147244000D01*
X101703072Y-147244000D01*
X101703072Y-147231500D01*
X101997200Y-147231500D01*
X102037750Y-147235494D01*
X102078300Y-147231500D01*
X102078303Y-147231500D01*
X102199576Y-147219556D01*
X102355184Y-147172353D01*
X102498592Y-147095699D01*
X102516728Y-147080815D01*
X102695648Y-147045226D01*
X102884006Y-146967205D01*
X103053524Y-146853937D01*
X103197687Y-146709774D01*
X103310955Y-146540256D01*
X103388976Y-146351898D01*
X103428750Y-146151939D01*
X103428750Y-145948061D01*
X103388976Y-145748102D01*
X103310955Y-145559744D01*
X103197687Y-145390226D01*
X103053524Y-145246063D01*
X102884006Y-145132795D01*
X102695648Y-145054774D01*
X102495689Y-145015000D01*
X102291811Y-145015000D01*
X102091852Y-145054774D01*
X101903494Y-145132795D01*
X101733976Y-145246063D01*
X101696883Y-145283156D01*
X101690177Y-145203369D01*
X101653265Y-145083855D01*
X101593746Y-144973839D01*
X101513908Y-144877549D01*
X101416818Y-144798684D01*
X101306208Y-144740276D01*
X101186329Y-144704570D01*
X101061787Y-144692936D01*
X100600750Y-144696000D01*
X100442000Y-144854750D01*
X100442000Y-145479000D01*
X100462000Y-145479000D01*
X100462000Y-145492928D01*
X99565000Y-145492928D01*
X99440518Y-145505188D01*
X99320820Y-145541498D01*
X99210506Y-145600463D01*
X99113815Y-145679815D01*
X99034463Y-145776506D01*
X99022083Y-145799667D01*
X98930000Y-145891750D01*
X98939546Y-146005337D01*
X98939188Y-146006518D01*
X98926928Y-146131000D01*
X98926928Y-146681000D01*
X98939188Y-146805482D01*
X98939345Y-146806000D01*
X98939188Y-146806518D01*
X98926928Y-146931000D01*
X98926928Y-147481000D01*
X98939188Y-147605482D01*
X98939345Y-147606000D01*
X98939188Y-147606518D01*
X98926928Y-147731000D01*
X98926928Y-148281000D01*
X98939188Y-148405482D01*
X98939345Y-148406000D01*
X98939188Y-148406518D01*
X98926928Y-148531000D01*
X98926928Y-149081000D01*
X98939188Y-149205482D01*
X98939345Y-149206000D01*
X98939188Y-149206518D01*
X98926928Y-149331000D01*
X98926928Y-149881000D01*
X98939188Y-150005482D01*
X98939345Y-150006000D01*
X98939188Y-150006518D01*
X98926928Y-150131000D01*
X98926928Y-150681000D01*
X98939188Y-150805482D01*
X98939345Y-150806000D01*
X98939188Y-150806518D01*
X98926928Y-150931000D01*
X98926928Y-151481000D01*
X98939188Y-151605482D01*
X98939345Y-151606000D01*
X98939188Y-151606518D01*
X98926928Y-151731000D01*
X98926928Y-152281000D01*
X98939188Y-152405482D01*
X98939345Y-152406000D01*
X98939188Y-152406518D01*
X98926928Y-152531000D01*
X98926928Y-153081000D01*
X98939188Y-153205482D01*
X98939345Y-153206000D01*
X98939188Y-153206518D01*
X98926928Y-153331000D01*
X98926928Y-153881000D01*
X98930962Y-153921962D01*
X98890000Y-153917928D01*
X98340000Y-153917928D01*
X98215518Y-153930188D01*
X98214337Y-153930546D01*
X98100750Y-153921000D01*
X98008667Y-154013083D01*
X97985506Y-154025463D01*
X97888815Y-154104815D01*
X97815000Y-154194759D01*
X97741185Y-154104815D01*
X97644494Y-154025463D01*
X97621333Y-154013083D01*
X97529250Y-153921000D01*
X97415663Y-153930546D01*
X97414482Y-153930188D01*
X97290000Y-153917928D01*
X96740000Y-153917928D01*
X96615518Y-153930188D01*
X96615000Y-153930345D01*
X96614482Y-153930188D01*
X96490000Y-153917928D01*
X95940000Y-153917928D01*
X95815518Y-153930188D01*
X95815000Y-153930345D01*
X95814482Y-153930188D01*
X95690000Y-153917928D01*
X95140000Y-153917928D01*
X95015518Y-153930188D01*
X95015000Y-153930345D01*
X95014482Y-153930188D01*
X94890000Y-153917928D01*
X94340000Y-153917928D01*
X94215518Y-153930188D01*
X94215000Y-153930345D01*
X94214482Y-153930188D01*
X94090000Y-153917928D01*
X93540000Y-153917928D01*
X93415518Y-153930188D01*
X93415000Y-153930345D01*
X93414482Y-153930188D01*
X93290000Y-153917928D01*
X92740000Y-153917928D01*
X92615518Y-153930188D01*
X92615000Y-153930345D01*
X92614482Y-153930188D01*
X92490000Y-153917928D01*
X91940000Y-153917928D01*
X91815518Y-153930188D01*
X91814337Y-153930546D01*
X91700750Y-153921000D01*
X91608667Y-154013083D01*
X91585506Y-154025463D01*
X91488815Y-154104815D01*
X91415000Y-154194759D01*
X91341185Y-154104815D01*
X91244494Y-154025463D01*
X91221333Y-154013083D01*
X91129250Y-153921000D01*
X91015663Y-153930546D01*
X91014482Y-153930188D01*
X90890000Y-153917928D01*
X90340000Y-153917928D01*
X90299038Y-153921962D01*
X90303072Y-153881000D01*
X90303072Y-153331000D01*
X90290812Y-153206518D01*
X90290655Y-153206000D01*
X90290812Y-153205482D01*
X90303072Y-153081000D01*
X90303072Y-152531000D01*
X90290812Y-152406518D01*
X90290655Y-152406000D01*
X90290812Y-152405482D01*
X90303072Y-152281000D01*
X90303072Y-151731000D01*
X90290812Y-151606518D01*
X90290655Y-151606000D01*
X90290812Y-151605482D01*
X90303072Y-151481000D01*
X90303072Y-150931000D01*
X90290812Y-150806518D01*
X90290454Y-150805337D01*
X90300000Y-150691750D01*
X90207917Y-150599667D01*
X90195537Y-150576506D01*
X90116185Y-150479815D01*
X90026241Y-150406000D01*
X90116185Y-150332185D01*
X90195537Y-150235494D01*
X90207917Y-150212333D01*
X90300000Y-150120250D01*
X90290454Y-150006663D01*
X90290812Y-150005482D01*
X90303072Y-149881000D01*
X90303072Y-149331000D01*
X90290812Y-149206518D01*
X90290655Y-149206000D01*
X90290812Y-149205482D01*
X90303072Y-149081000D01*
X90303072Y-148531000D01*
X90290812Y-148406518D01*
X90290655Y-148406000D01*
X90290812Y-148405482D01*
X90303072Y-148281000D01*
X90303072Y-147731000D01*
X90290812Y-147606518D01*
X90290655Y-147606000D01*
X90290812Y-147605482D01*
X90303072Y-147481000D01*
X90303072Y-146931000D01*
X90290812Y-146806518D01*
X90290655Y-146806000D01*
X90290812Y-146805482D01*
X90303072Y-146681000D01*
X90303072Y-146131000D01*
X90290812Y-146006518D01*
X90290655Y-146006000D01*
X90290812Y-146005482D01*
X90303072Y-145881000D01*
X90303072Y-145331000D01*
X90299038Y-145290038D01*
X90340000Y-145294072D01*
X90890000Y-145294072D01*
X91014482Y-145281812D01*
X91015000Y-145281655D01*
X91015518Y-145281812D01*
X91140000Y-145294072D01*
X91690000Y-145294072D01*
X91814482Y-145281812D01*
X91815000Y-145281655D01*
X91815518Y-145281812D01*
X91940000Y-145294072D01*
X92490000Y-145294072D01*
X92614482Y-145281812D01*
X92615663Y-145281454D01*
X92729250Y-145291000D01*
X92821333Y-145198917D01*
X92844494Y-145186537D01*
X92941185Y-145107185D01*
X93015000Y-145017241D01*
X93088815Y-145107185D01*
X93185506Y-145186537D01*
X93208667Y-145198917D01*
X93300750Y-145291000D01*
X93414337Y-145281454D01*
X93415518Y-145281812D01*
X93540000Y-145294072D01*
X94090000Y-145294072D01*
X94214482Y-145281812D01*
X94215000Y-145281655D01*
X94215518Y-145281812D01*
X94340000Y-145294072D01*
X94890000Y-145294072D01*
X95014482Y-145281812D01*
X95015000Y-145281655D01*
X95015518Y-145281812D01*
X95140000Y-145294072D01*
X95690000Y-145294072D01*
X95814482Y-145281812D01*
X95815000Y-145281655D01*
X95815518Y-145281812D01*
X95940000Y-145294072D01*
X96490000Y-145294072D01*
X96614482Y-145281812D01*
X96615000Y-145281655D01*
X96615518Y-145281812D01*
X96740000Y-145294072D01*
X97290000Y-145294072D01*
X97414482Y-145281812D01*
X97415000Y-145281655D01*
X97415518Y-145281812D01*
X97540000Y-145294072D01*
X98090000Y-145294072D01*
X98214482Y-145281812D01*
X98215000Y-145281655D01*
X98215518Y-145281812D01*
X98340000Y-145294072D01*
X98890000Y-145294072D01*
X98932552Y-145289881D01*
X98930000Y-145320250D01*
X99088750Y-145479000D01*
X100188000Y-145479000D01*
X100188000Y-144854750D01*
X100029250Y-144696000D01*
X99568213Y-144692936D01*
X99524028Y-144697064D01*
X99528072Y-144656000D01*
X99528072Y-143156000D01*
X99515812Y-143031518D01*
X99479502Y-142911820D01*
X99420537Y-142801506D01*
X99341185Y-142704815D01*
X99244494Y-142625463D01*
X99134180Y-142566498D01*
X99014482Y-142530188D01*
X98890000Y-142517928D01*
X98340000Y-142517928D01*
X98215518Y-142530188D01*
X98215000Y-142530345D01*
X98214482Y-142530188D01*
X98090000Y-142517928D01*
X97540000Y-142517928D01*
X97415518Y-142530188D01*
X97415000Y-142530345D01*
X97414482Y-142530188D01*
X97290000Y-142517928D01*
X96740000Y-142517928D01*
X96615518Y-142530188D01*
X96615000Y-142530345D01*
X96614482Y-142530188D01*
X96490000Y-142517928D01*
X95940000Y-142517928D01*
X95815518Y-142530188D01*
X95815000Y-142530345D01*
X95814482Y-142530188D01*
X95690000Y-142517928D01*
X95377000Y-142517928D01*
X95377000Y-141013130D01*
X95395808Y-140994322D01*
X96256250Y-140994322D01*
X96380732Y-140982062D01*
X96500430Y-140945752D01*
X96610744Y-140886787D01*
X96707435Y-140807435D01*
X96786787Y-140710744D01*
X96836227Y-140618250D01*
X97226871Y-140618250D01*
X97322038Y-140734212D01*
X97456614Y-140844655D01*
X97610150Y-140926722D01*
X97776746Y-140977258D01*
X97950000Y-140994322D01*
X98900000Y-140994322D01*
X99073254Y-140977258D01*
X99239850Y-140926722D01*
X99393386Y-140844655D01*
X99527962Y-140734212D01*
X99638405Y-140599636D01*
X99720472Y-140446100D01*
X99771008Y-140279504D01*
X99788072Y-140106250D01*
X99788072Y-139606250D01*
X99771008Y-139432996D01*
X99720472Y-139266400D01*
X99638405Y-139112864D01*
X99527962Y-138978288D01*
X99521406Y-138972908D01*
X99601185Y-138907435D01*
X99680537Y-138810744D01*
X99739502Y-138700430D01*
X99775812Y-138580732D01*
X99788072Y-138456250D01*
X99785000Y-138242000D01*
X99626250Y-138083250D01*
X98552000Y-138083250D01*
X98552000Y-138103250D01*
X98298000Y-138103250D01*
X98298000Y-138083250D01*
X97223750Y-138083250D01*
X97065000Y-138242000D01*
X97061928Y-138456250D01*
X97074188Y-138580732D01*
X97110498Y-138700430D01*
X97169463Y-138810744D01*
X97248815Y-138907435D01*
X97328594Y-138972908D01*
X97322038Y-138978288D01*
X97226871Y-139094250D01*
X96888216Y-139094250D01*
X96882062Y-139031768D01*
X96845752Y-138912070D01*
X96842641Y-138906250D01*
X96845752Y-138900430D01*
X96882062Y-138780732D01*
X96894322Y-138656250D01*
X96891250Y-138342000D01*
X96732500Y-138183250D01*
X95683250Y-138183250D01*
X95683250Y-138203250D01*
X95429250Y-138203250D01*
X95429250Y-138183250D01*
X95409250Y-138183250D01*
X95409250Y-137929250D01*
X95429250Y-137929250D01*
X95429250Y-136980000D01*
X95683250Y-136980000D01*
X95683250Y-137929250D01*
X96732500Y-137929250D01*
X96891250Y-137770500D01*
X96894322Y-137456250D01*
X97061928Y-137456250D01*
X97065000Y-137670500D01*
X97223750Y-137829250D01*
X98298000Y-137829250D01*
X98298000Y-136980000D01*
X98552000Y-136980000D01*
X98552000Y-137829250D01*
X99626250Y-137829250D01*
X99785000Y-137670500D01*
X99788072Y-137456250D01*
X99775812Y-137331768D01*
X99739502Y-137212070D01*
X99680537Y-137101756D01*
X99601185Y-137005065D01*
X99504494Y-136925713D01*
X99394180Y-136866748D01*
X99274482Y-136830438D01*
X99150000Y-136818178D01*
X98710750Y-136821250D01*
X98552000Y-136980000D01*
X98298000Y-136980000D01*
X98139250Y-136821250D01*
X97700000Y-136818178D01*
X97575518Y-136830438D01*
X97455820Y-136866748D01*
X97345506Y-136925713D01*
X97248815Y-137005065D01*
X97169463Y-137101756D01*
X97110498Y-137212070D01*
X97074188Y-137331768D01*
X97061928Y-137456250D01*
X96894322Y-137456250D01*
X96882062Y-137331768D01*
X96845752Y-137212070D01*
X96786787Y-137101756D01*
X96707435Y-137005065D01*
X96610744Y-136925713D01*
X96500430Y-136866748D01*
X96380732Y-136830438D01*
X96256250Y-136818178D01*
X95842000Y-136821250D01*
X95683250Y-136980000D01*
X95429250Y-136980000D01*
X95270500Y-136821250D01*
X94856250Y-136818178D01*
X94731768Y-136830438D01*
X94612070Y-136866748D01*
X94501756Y-136925713D01*
X94456250Y-136963059D01*
X94410744Y-136925713D01*
X94300430Y-136866748D01*
X94180732Y-136830438D01*
X94056250Y-136818178D01*
X92656250Y-136818178D01*
X92531768Y-136830438D01*
X92412070Y-136866748D01*
X92301756Y-136925713D01*
X92205065Y-137005065D01*
X92125713Y-137101756D01*
X92076273Y-137194250D01*
X91685629Y-137194250D01*
X91590462Y-137078288D01*
X91455886Y-136967845D01*
X91302350Y-136885778D01*
X91135754Y-136835242D01*
X90962500Y-136818178D01*
X90012500Y-136818178D01*
X89839246Y-136835242D01*
X89672650Y-136885778D01*
X89519114Y-136967845D01*
X89384538Y-137078288D01*
X89274095Y-137212864D01*
X89192028Y-137366400D01*
X89141492Y-137532996D01*
X89124428Y-137706250D01*
X89124428Y-138206250D01*
X89141492Y-138379504D01*
X89192028Y-138546100D01*
X89274095Y-138699636D01*
X89384538Y-138834212D01*
X89391094Y-138839592D01*
X89311315Y-138905065D01*
X89231963Y-139001756D01*
X89172998Y-139112070D01*
X89136688Y-139231768D01*
X89124428Y-139356250D01*
X89127500Y-139570500D01*
X89286250Y-139729250D01*
X90360500Y-139729250D01*
X90360500Y-139709250D01*
X90614500Y-139709250D01*
X90614500Y-139729250D01*
X90634500Y-139729250D01*
X90634500Y-139983250D01*
X90614500Y-139983250D01*
X90614500Y-140003250D01*
X90360500Y-140003250D01*
X90360500Y-139983250D01*
X89286250Y-139983250D01*
X89127500Y-140142000D01*
X89124428Y-140356250D01*
X89136688Y-140480732D01*
X89172998Y-140600430D01*
X89231963Y-140710744D01*
X89254528Y-140738240D01*
X88190280Y-140738240D01*
X88116437Y-140627726D01*
X87972274Y-140483563D01*
X87802756Y-140370295D01*
X87614398Y-140292274D01*
X87414439Y-140252500D01*
X87210561Y-140252500D01*
X87010602Y-140292274D01*
X86822244Y-140370295D01*
X86652726Y-140483563D01*
X86508563Y-140627726D01*
X86395295Y-140797244D01*
X86317274Y-140985602D01*
X86285072Y-141147494D01*
X84827387Y-142605181D01*
X84795880Y-142631038D01*
X84755904Y-142679750D01*
X84692722Y-142756737D01*
X84640426Y-142854575D01*
X84616068Y-142900146D01*
X84568865Y-143055754D01*
X84557809Y-143168015D01*
X84552927Y-143217579D01*
X84556921Y-143258129D01*
X84556921Y-143497276D01*
X84440994Y-143545295D01*
X84271476Y-143658563D01*
X84127313Y-143802726D01*
X84014045Y-143972244D01*
X83936024Y-144160602D01*
X83896250Y-144360561D01*
X83896250Y-144564439D01*
X83921225Y-144690000D01*
X83854248Y-144690000D01*
X83854248Y-144848748D01*
X83695500Y-144690000D01*
X83481250Y-144686928D01*
X83356768Y-144699188D01*
X83237070Y-144735498D01*
X83126756Y-144794463D01*
X83030065Y-144873815D01*
X82950713Y-144970506D01*
X82891748Y-145080820D01*
X82855438Y-145200518D01*
X82843178Y-145325000D01*
X82846250Y-145764250D01*
X83005000Y-145923000D01*
X83854250Y-145923000D01*
X83854250Y-145903000D01*
X84108250Y-145903000D01*
X84108250Y-145923000D01*
X84128250Y-145923000D01*
X84128250Y-146177000D01*
X84108250Y-146177000D01*
X84108250Y-146197000D01*
X83854250Y-146197000D01*
X83854250Y-146177000D01*
X83005000Y-146177000D01*
X82846250Y-146335750D01*
X82843178Y-146775000D01*
X82855438Y-146899482D01*
X82891748Y-147019180D01*
X82950713Y-147129494D01*
X83030065Y-147226185D01*
X83126756Y-147305537D01*
X83237070Y-147364502D01*
X83356768Y-147400812D01*
X83481250Y-147413072D01*
X83695500Y-147410000D01*
X83854248Y-147251252D01*
X83854248Y-147375733D01*
X83828288Y-147397038D01*
X83717845Y-147531614D01*
X83635778Y-147685150D01*
X83585242Y-147851746D01*
X83568178Y-148025000D01*
X83568178Y-148525000D01*
X83585242Y-148698254D01*
X83635778Y-148864850D01*
X83717845Y-149018386D01*
X83828288Y-149152962D01*
X83834844Y-149158342D01*
X83755065Y-149223815D01*
X83675713Y-149320506D01*
X83616748Y-149430820D01*
X83580438Y-149550518D01*
X83568178Y-149675000D01*
X83571250Y-149889250D01*
X83729998Y-150047998D01*
X83656879Y-150047998D01*
X81724500Y-148115620D01*
X81724500Y-145571880D01*
X82268601Y-145027780D01*
X82297672Y-145003922D01*
X82392895Y-144887892D01*
X82463652Y-144755515D01*
X82507224Y-144611878D01*
X82518250Y-144499926D01*
X82518250Y-144499924D01*
X82521936Y-144462501D01*
X82518250Y-144425078D01*
X82518250Y-144085170D01*
X82546101Y-144076722D01*
X82699637Y-143994655D01*
X82834212Y-143884212D01*
X82944655Y-143749637D01*
X83026722Y-143596101D01*
X83077258Y-143429505D01*
X83094322Y-143256251D01*
X83094322Y-142731249D01*
X83077258Y-142557995D01*
X83026722Y-142391399D01*
X82944655Y-142237863D01*
X82834212Y-142103288D01*
X82807359Y-142081250D01*
X82834212Y-142059212D01*
X82944655Y-141924637D01*
X83026722Y-141771101D01*
X83077258Y-141604505D01*
X83094322Y-141431251D01*
X83094322Y-140906249D01*
X83077258Y-140732995D01*
X83026722Y-140566399D01*
X82944655Y-140412863D01*
X82834212Y-140278288D01*
X82699637Y-140167845D01*
X82546101Y-140085778D01*
X82379505Y-140035242D01*
X82206251Y-140018178D01*
X81724500Y-140018178D01*
X81724500Y-138819322D01*
X82012500Y-138819322D01*
X82136982Y-138807062D01*
X82161766Y-138799544D01*
X82181139Y-138805654D01*
X82280750Y-138816250D01*
X82439500Y-138657500D01*
X82439500Y-138652283D01*
X82463685Y-138632435D01*
X82543037Y-138535744D01*
X82602002Y-138425430D01*
X82638312Y-138305732D01*
X82650572Y-138181250D01*
X82650572Y-135931250D01*
X82638312Y-135806768D01*
X82602002Y-135687070D01*
X82543037Y-135576756D01*
X82463685Y-135480065D01*
X82439500Y-135460217D01*
X82439500Y-135455000D01*
X82685500Y-135455000D01*
X82685500Y-136929250D01*
X82709500Y-136929250D01*
X82709500Y-137183250D01*
X82685500Y-137183250D01*
X82685500Y-138657500D01*
X82844250Y-138816250D01*
X82943861Y-138805654D01*
X83063152Y-138768029D01*
X83172811Y-138707854D01*
X83268623Y-138627443D01*
X83346906Y-138529884D01*
X83402623Y-138422828D01*
X83557366Y-138611384D01*
X83783486Y-138796956D01*
X84041466Y-138934849D01*
X84321389Y-139019763D01*
X84612500Y-139048435D01*
X84903610Y-139019763D01*
X85183533Y-138934849D01*
X85441513Y-138796956D01*
X85667634Y-138611384D01*
X85853206Y-138385264D01*
X85991099Y-138127284D01*
X86076013Y-137847361D01*
X86097500Y-137629200D01*
X86097500Y-136483300D01*
X86076013Y-136265139D01*
X85991099Y-135985216D01*
X85853206Y-135727236D01*
X85667634Y-135501116D01*
X85441514Y-135315544D01*
X85183534Y-135177651D01*
X84903611Y-135092737D01*
X84612500Y-135064065D01*
X84321390Y-135092737D01*
X84041467Y-135177651D01*
X83783487Y-135315544D01*
X83557367Y-135501116D01*
X83402623Y-135689671D01*
X83346906Y-135582616D01*
X83268623Y-135485057D01*
X83172811Y-135404646D01*
X83063152Y-135344471D01*
X82943861Y-135306846D01*
X82844250Y-135296250D01*
X82685500Y-135455000D01*
X82439500Y-135455000D01*
X82280750Y-135296250D01*
X82181139Y-135306846D01*
X82161766Y-135312956D01*
X82136982Y-135305438D01*
X82012500Y-135293178D01*
X81512500Y-135293178D01*
X81388018Y-135305438D01*
X81362500Y-135313179D01*
X81336982Y-135305438D01*
X81212500Y-135293178D01*
X80712500Y-135293178D01*
X80588018Y-135305438D01*
X80562500Y-135313179D01*
X80536982Y-135305438D01*
X80412500Y-135293178D01*
X79912500Y-135293178D01*
X79788018Y-135305438D01*
X79762500Y-135313179D01*
X79736982Y-135305438D01*
X79612500Y-135293178D01*
X79112500Y-135293178D01*
X78988018Y-135305438D01*
X78868320Y-135341748D01*
X78758006Y-135400713D01*
X78661315Y-135480065D01*
X78581963Y-135576756D01*
X78522998Y-135687070D01*
X78522254Y-135689521D01*
X78367634Y-135501116D01*
X78141514Y-135315544D01*
X77883534Y-135177651D01*
X77603611Y-135092737D01*
X77312500Y-135064065D01*
X77021390Y-135092737D01*
X76741467Y-135177651D01*
X76483487Y-135315544D01*
X76257367Y-135501116D01*
X76071794Y-135727236D01*
X75933901Y-135985216D01*
X75848987Y-136265139D01*
X75827500Y-136483300D01*
X75827500Y-137629199D01*
X75848987Y-137847360D01*
X75933901Y-138127283D01*
X76071794Y-138385263D01*
X76257366Y-138611384D01*
X76483486Y-138796956D01*
X76741466Y-138934849D01*
X77021389Y-139019763D01*
X77275297Y-139044771D01*
X75038711Y-141281357D01*
X75007210Y-141307209D01*
X74981359Y-141338709D01*
X74904051Y-141432908D01*
X74827397Y-141576317D01*
X74780195Y-141731924D01*
X74764256Y-141893750D01*
X74768251Y-141934310D01*
X74768250Y-144663672D01*
X74725364Y-144686595D01*
X74590788Y-144797038D01*
X74480345Y-144931614D01*
X74398278Y-145085150D01*
X74347742Y-145251746D01*
X74330678Y-145425000D01*
X74330678Y-146675000D01*
X74347742Y-146848254D01*
X74398278Y-147014850D01*
X74480345Y-147168386D01*
X74590788Y-147302962D01*
X74725364Y-147413405D01*
X74878900Y-147495472D01*
X75045496Y-147546008D01*
X75218750Y-147563072D01*
X75968750Y-147563072D01*
X76142004Y-147546008D01*
X76308600Y-147495472D01*
X76462136Y-147413405D01*
X76596712Y-147302962D01*
X76707155Y-147168386D01*
X76789222Y-147014850D01*
X76839758Y-146848254D01*
X76856822Y-146675000D01*
X76856822Y-145425000D01*
X76839758Y-145251746D01*
X76789222Y-145085150D01*
X76707155Y-144931614D01*
X76596712Y-144797038D01*
X76462136Y-144686595D01*
X76419250Y-144663672D01*
X76419250Y-142235682D01*
X78122894Y-140532038D01*
X78104528Y-140566399D01*
X78053992Y-140732995D01*
X78036928Y-140906249D01*
X78036928Y-141431251D01*
X78053992Y-141604505D01*
X78104528Y-141771101D01*
X78186595Y-141924637D01*
X78297038Y-142059212D01*
X78323891Y-142081250D01*
X78297038Y-142103288D01*
X78186595Y-142237863D01*
X78104528Y-142391399D01*
X78053992Y-142557995D01*
X78036928Y-142731249D01*
X78036928Y-143256251D01*
X78053992Y-143429505D01*
X78104528Y-143596101D01*
X78186595Y-143749637D01*
X78297038Y-143884212D01*
X78431613Y-143994655D01*
X78585149Y-144076722D01*
X78613001Y-144085171D01*
X78613001Y-144425067D01*
X78609314Y-144462500D01*
X78616645Y-144536928D01*
X78018750Y-144536928D01*
X77845496Y-144553992D01*
X77678900Y-144604528D01*
X77525364Y-144686595D01*
X77390788Y-144797038D01*
X77280345Y-144931614D01*
X77198278Y-145085150D01*
X77147742Y-145251746D01*
X77130678Y-145425000D01*
X77130678Y-146675000D01*
X77147742Y-146848254D01*
X77198278Y-147014850D01*
X77280345Y-147168386D01*
X77390788Y-147302962D01*
X77525364Y-147413405D01*
X77568250Y-147436328D01*
X77568251Y-150584437D01*
X77564256Y-150625000D01*
X77568250Y-150665553D01*
X77568251Y-153640690D01*
X77564256Y-153681250D01*
X77580195Y-153843076D01*
X77627397Y-153998683D01*
X77704051Y-154142092D01*
X77755008Y-154204182D01*
X77807210Y-154267791D01*
X77838711Y-154293643D01*
X79624428Y-156079361D01*
X79624428Y-156512501D01*
X79641492Y-156685755D01*
X79692028Y-156852351D01*
X79774095Y-157005887D01*
X79884538Y-157140462D01*
X79911391Y-157162500D01*
X79884538Y-157184538D01*
X79774095Y-157319113D01*
X79692028Y-157472649D01*
X79641492Y-157639245D01*
X79624428Y-157812499D01*
X79624428Y-158335441D01*
X78291692Y-159668178D01*
X77768750Y-159668178D01*
X77644268Y-159680438D01*
X77524570Y-159716748D01*
X77414256Y-159775713D01*
X77317565Y-159855065D01*
X77238213Y-159951756D01*
X77179248Y-160062070D01*
X77142938Y-160181768D01*
X77130678Y-160306250D01*
X77130678Y-162106250D01*
X77142938Y-162230732D01*
X77179248Y-162350430D01*
X77238213Y-162460744D01*
X77317565Y-162557435D01*
X77414256Y-162636787D01*
X77524570Y-162695752D01*
X77644268Y-162732062D01*
X77768750Y-162744322D01*
X78868750Y-162744322D01*
X78993232Y-162732062D01*
X79112930Y-162695752D01*
X79223244Y-162636787D01*
X79319935Y-162557435D01*
X79399287Y-162460744D01*
X79458252Y-162350430D01*
X79494562Y-162230732D01*
X79506822Y-162106250D01*
X79506822Y-160608308D01*
X79808880Y-160306250D01*
X80830678Y-160306250D01*
X80830678Y-162106250D01*
X80842938Y-162230732D01*
X80879248Y-162350430D01*
X80938213Y-162460744D01*
X81017565Y-162557435D01*
X81114256Y-162636787D01*
X81224570Y-162695752D01*
X81344268Y-162732062D01*
X81468750Y-162744322D01*
X82568750Y-162744322D01*
X82693232Y-162732062D01*
X82812930Y-162695752D01*
X82923244Y-162636787D01*
X83019935Y-162557435D01*
X83099287Y-162460744D01*
X83158252Y-162350430D01*
X83194562Y-162230732D01*
X83203301Y-162142000D01*
X96336928Y-162142000D01*
X96349188Y-162266482D01*
X96385498Y-162386180D01*
X96444463Y-162496494D01*
X96523815Y-162593185D01*
X96620506Y-162672537D01*
X96730820Y-162731502D01*
X96850518Y-162767812D01*
X96975000Y-162780072D01*
X97189250Y-162777000D01*
X97348000Y-162618250D01*
X97348000Y-161544000D01*
X96498750Y-161544000D01*
X96340000Y-161702750D01*
X96336928Y-162142000D01*
X83203301Y-162142000D01*
X83206822Y-162106250D01*
X83206822Y-160306250D01*
X83194562Y-160181768D01*
X83158252Y-160062070D01*
X83099287Y-159951756D01*
X83019935Y-159855065D01*
X82923244Y-159775713D01*
X82812930Y-159716748D01*
X82693232Y-159680438D01*
X82568750Y-159668178D01*
X81468750Y-159668178D01*
X81344268Y-159680438D01*
X81224570Y-159716748D01*
X81114256Y-159775713D01*
X81017565Y-159855065D01*
X80938213Y-159951756D01*
X80879248Y-160062070D01*
X80842938Y-160181768D01*
X80830678Y-160306250D01*
X79808880Y-160306250D01*
X80889559Y-159225572D01*
X81412501Y-159225572D01*
X81585755Y-159208508D01*
X81752351Y-159157972D01*
X81905887Y-159075905D01*
X82040462Y-158965462D01*
X82145888Y-158837000D01*
X83592685Y-158837000D01*
X83647244Y-158873455D01*
X83835602Y-158951476D01*
X84035561Y-158991250D01*
X84239439Y-158991250D01*
X84439398Y-158951476D01*
X84627756Y-158873455D01*
X84797274Y-158760187D01*
X84941437Y-158616024D01*
X85054705Y-158446506D01*
X85132726Y-158258148D01*
X85172500Y-158058189D01*
X85172500Y-157854311D01*
X85132726Y-157654352D01*
X85054705Y-157465994D01*
X84941437Y-157296476D01*
X84797274Y-157152313D01*
X84627756Y-157039045D01*
X84439398Y-156961024D01*
X84239439Y-156921250D01*
X84035561Y-156921250D01*
X83835602Y-156961024D01*
X83647244Y-157039045D01*
X83477726Y-157152313D01*
X83333563Y-157296476D01*
X83322522Y-157313000D01*
X82145888Y-157313000D01*
X82040462Y-157184538D01*
X82013609Y-157162500D01*
X82040462Y-157140462D01*
X82150905Y-157005887D01*
X82232972Y-156852351D01*
X82283508Y-156685755D01*
X82300572Y-156512501D01*
X82300572Y-156079360D01*
X84748433Y-153631500D01*
X86949000Y-153631500D01*
X86949000Y-154152841D01*
X86945005Y-154193401D01*
X86960944Y-154355227D01*
X87008146Y-154510834D01*
X87084800Y-154654243D01*
X87138322Y-154719459D01*
X87187959Y-154779942D01*
X87219460Y-154805794D01*
X88274709Y-155861045D01*
X88300557Y-155892541D01*
X88332053Y-155918389D01*
X88332056Y-155918392D01*
X88426255Y-155995699D01*
X88533059Y-156052787D01*
X88569664Y-156072353D01*
X88725272Y-156119556D01*
X88846545Y-156131500D01*
X88846547Y-156131500D01*
X88887098Y-156135494D01*
X88927648Y-156131500D01*
X89410501Y-156131500D01*
X89410500Y-157222983D01*
X89358038Y-157266038D01*
X89247595Y-157400614D01*
X89165528Y-157554150D01*
X89114992Y-157720746D01*
X89097928Y-157894000D01*
X89097928Y-158178389D01*
X87966246Y-159310071D01*
X87804352Y-159342274D01*
X87615994Y-159420295D01*
X87446476Y-159533563D01*
X87302313Y-159677726D01*
X87189045Y-159847244D01*
X87111024Y-160035602D01*
X87071250Y-160235561D01*
X87071250Y-160439439D01*
X87111024Y-160639398D01*
X87189045Y-160827756D01*
X87302313Y-160997274D01*
X87446476Y-161141437D01*
X87615994Y-161254705D01*
X87804352Y-161332726D01*
X88004311Y-161372500D01*
X88208189Y-161372500D01*
X88408148Y-161332726D01*
X88596506Y-161254705D01*
X88766024Y-161141437D01*
X88910187Y-160997274D01*
X89023455Y-160827756D01*
X89079687Y-160692000D01*
X96336928Y-160692000D01*
X96340000Y-161131250D01*
X96498750Y-161290000D01*
X97348000Y-161290000D01*
X97348000Y-160215750D01*
X97189250Y-160057000D01*
X96975000Y-160053928D01*
X96850518Y-160066188D01*
X96730820Y-160102498D01*
X96620506Y-160161463D01*
X96523815Y-160240815D01*
X96444463Y-160337506D01*
X96385498Y-160447820D01*
X96349188Y-160567518D01*
X96336928Y-160692000D01*
X89079687Y-160692000D01*
X89101476Y-160639398D01*
X89133679Y-160477504D01*
X89888694Y-159722488D01*
X89986000Y-159732072D01*
X90486000Y-159732072D01*
X90659254Y-159715008D01*
X90825850Y-159664472D01*
X90979386Y-159582405D01*
X91113962Y-159471962D01*
X91119342Y-159465406D01*
X91184815Y-159545185D01*
X91281506Y-159624537D01*
X91391820Y-159683502D01*
X91511518Y-159719812D01*
X91636000Y-159732072D01*
X91850250Y-159729000D01*
X92009000Y-159570250D01*
X92009000Y-158496000D01*
X92263000Y-158496000D01*
X92263000Y-159570250D01*
X92421750Y-159729000D01*
X92636000Y-159732072D01*
X92760482Y-159719812D01*
X92880180Y-159683502D01*
X92990494Y-159624537D01*
X93087185Y-159545185D01*
X93166537Y-159448494D01*
X93220253Y-159348000D01*
X96336928Y-159348000D01*
X96349188Y-159472482D01*
X96385498Y-159592180D01*
X96444463Y-159702494D01*
X96523815Y-159799185D01*
X96620506Y-159878537D01*
X96730820Y-159937502D01*
X96850518Y-159973812D01*
X96975000Y-159986072D01*
X97189250Y-159983000D01*
X97348000Y-159824250D01*
X97348000Y-158750000D01*
X96498750Y-158750000D01*
X96340000Y-158908750D01*
X96336928Y-159348000D01*
X93220253Y-159348000D01*
X93225502Y-159338180D01*
X93261812Y-159218482D01*
X93274072Y-159094000D01*
X93271000Y-158654750D01*
X93112250Y-158496000D01*
X92263000Y-158496000D01*
X92009000Y-158496000D01*
X91989000Y-158496000D01*
X91989000Y-158242000D01*
X92009000Y-158242000D01*
X92009000Y-157167750D01*
X92263000Y-157167750D01*
X92263000Y-158242000D01*
X93112250Y-158242000D01*
X93271000Y-158083250D01*
X93272295Y-157898000D01*
X96336928Y-157898000D01*
X96340000Y-158337250D01*
X96498750Y-158496000D01*
X97348000Y-158496000D01*
X97348000Y-157421750D01*
X97189250Y-157263000D01*
X96975000Y-157259928D01*
X96850518Y-157272188D01*
X96730820Y-157308498D01*
X96620506Y-157367463D01*
X96523815Y-157446815D01*
X96444463Y-157543506D01*
X96385498Y-157653820D01*
X96349188Y-157773518D01*
X96336928Y-157898000D01*
X93272295Y-157898000D01*
X93274072Y-157644000D01*
X93261812Y-157519518D01*
X93225502Y-157399820D01*
X93166537Y-157289506D01*
X93087185Y-157192815D01*
X92990494Y-157113463D01*
X92880180Y-157054498D01*
X92760482Y-157018188D01*
X92636000Y-157005928D01*
X92421750Y-157009000D01*
X92263000Y-157167750D01*
X92009000Y-157167750D01*
X91850250Y-157009000D01*
X91636000Y-157005928D01*
X91511518Y-157018188D01*
X91391820Y-157054498D01*
X91281506Y-157113463D01*
X91184815Y-157192815D01*
X91119342Y-157272594D01*
X91113962Y-157266038D01*
X91061500Y-157222984D01*
X91061500Y-156685306D01*
X91129250Y-156691000D01*
X91221333Y-156598917D01*
X91244494Y-156586537D01*
X91341185Y-156507185D01*
X91415000Y-156417241D01*
X91488815Y-156507185D01*
X91585506Y-156586537D01*
X91608667Y-156598917D01*
X91700750Y-156691000D01*
X91814337Y-156681454D01*
X91815518Y-156681812D01*
X91940000Y-156694072D01*
X92490000Y-156694072D01*
X92614482Y-156681812D01*
X92615000Y-156681655D01*
X92615518Y-156681812D01*
X92740000Y-156694072D01*
X93290000Y-156694072D01*
X93414482Y-156681812D01*
X93415000Y-156681655D01*
X93415518Y-156681812D01*
X93540000Y-156694072D01*
X94090000Y-156694072D01*
X94214482Y-156681812D01*
X94215000Y-156681655D01*
X94215518Y-156681812D01*
X94340000Y-156694072D01*
X94890000Y-156694072D01*
X95014482Y-156681812D01*
X95015000Y-156681655D01*
X95015518Y-156681812D01*
X95140000Y-156694072D01*
X95690000Y-156694072D01*
X95814482Y-156681812D01*
X95815000Y-156681655D01*
X95815518Y-156681812D01*
X95940000Y-156694072D01*
X96490000Y-156694072D01*
X96614482Y-156681812D01*
X96615000Y-156681655D01*
X96615518Y-156681812D01*
X96740000Y-156694072D01*
X97290000Y-156694072D01*
X97414482Y-156681812D01*
X97415663Y-156681454D01*
X97529250Y-156691000D01*
X97621333Y-156598917D01*
X97644494Y-156586537D01*
X97741185Y-156507185D01*
X97815000Y-156417241D01*
X97888815Y-156507185D01*
X97985506Y-156586537D01*
X98008667Y-156598917D01*
X98100750Y-156691000D01*
X98214337Y-156681454D01*
X98215518Y-156681812D01*
X98340000Y-156694072D01*
X98549501Y-156694072D01*
X98549500Y-157476983D01*
X98497038Y-157520038D01*
X98491658Y-157526594D01*
X98426185Y-157446815D01*
X98329494Y-157367463D01*
X98219180Y-157308498D01*
X98099482Y-157272188D01*
X97975000Y-157259928D01*
X97760750Y-157263000D01*
X97602000Y-157421750D01*
X97602000Y-158496000D01*
X97622000Y-158496000D01*
X97622000Y-158750000D01*
X97602000Y-158750000D01*
X97602000Y-159824250D01*
X97760750Y-159983000D01*
X97975000Y-159986072D01*
X98099482Y-159973812D01*
X98219180Y-159937502D01*
X98329494Y-159878537D01*
X98426185Y-159799185D01*
X98491658Y-159719406D01*
X98497038Y-159725962D01*
X98549501Y-159769017D01*
X98549500Y-160270983D01*
X98497038Y-160314038D01*
X98491658Y-160320594D01*
X98426185Y-160240815D01*
X98329494Y-160161463D01*
X98219180Y-160102498D01*
X98099482Y-160066188D01*
X97975000Y-160053928D01*
X97760750Y-160057000D01*
X97602000Y-160215750D01*
X97602000Y-161290000D01*
X97622000Y-161290000D01*
X97622000Y-161544000D01*
X97602000Y-161544000D01*
X97602000Y-162618250D01*
X97760750Y-162777000D01*
X97975000Y-162780072D01*
X98099482Y-162767812D01*
X98219180Y-162731502D01*
X98329494Y-162672537D01*
X98426185Y-162593185D01*
X98491658Y-162513406D01*
X98497038Y-162519962D01*
X98631614Y-162630405D01*
X98785150Y-162712472D01*
X98951746Y-162763008D01*
X99125000Y-162780072D01*
X99625000Y-162780072D01*
X99798254Y-162763008D01*
X99964850Y-162712472D01*
X100118386Y-162630405D01*
X100252962Y-162519962D01*
X100363405Y-162385386D01*
X100445472Y-162231850D01*
X100496008Y-162065254D01*
X100513072Y-161892000D01*
X100513072Y-160942000D01*
X100511598Y-160927030D01*
X100774501Y-161189934D01*
X100774500Y-162091247D01*
X100682795Y-162228494D01*
X100604774Y-162416852D01*
X100565000Y-162616811D01*
X100565000Y-162820689D01*
X100604774Y-163020648D01*
X100682795Y-163209006D01*
X100796063Y-163378524D01*
X100940226Y-163522687D01*
X101109744Y-163635955D01*
X101298102Y-163713976D01*
X101498061Y-163753750D01*
X101701939Y-163753750D01*
X101901898Y-163713976D01*
X102090256Y-163635955D01*
X102259774Y-163522687D01*
X102403937Y-163378524D01*
X102517205Y-163209006D01*
X102544250Y-163143713D01*
X102544250Y-165504112D01*
X102469113Y-165565776D01*
X102444935Y-165536315D01*
X102348244Y-165456963D01*
X102237930Y-165397998D01*
X102118232Y-165361688D01*
X101993750Y-165349428D01*
X101767000Y-165352500D01*
X101608250Y-165511250D01*
X101608250Y-166560500D01*
X101628250Y-166560500D01*
X101628250Y-166814500D01*
X101608250Y-166814500D01*
X101608250Y-167863750D01*
X101767000Y-168022500D01*
X101993750Y-168025572D01*
X102118232Y-168013312D01*
X102237930Y-167977002D01*
X102348244Y-167918037D01*
X102444935Y-167838685D01*
X102469113Y-167809224D01*
X102550363Y-167875905D01*
X102703899Y-167957972D01*
X102870495Y-168008508D01*
X103043749Y-168025572D01*
X103568751Y-168025572D01*
X103742005Y-168008508D01*
X103908601Y-167957972D01*
X104062137Y-167875905D01*
X104196712Y-167765462D01*
X104307155Y-167630887D01*
X104389222Y-167477351D01*
X104439758Y-167310755D01*
X104456822Y-167137501D01*
X104456822Y-166237499D01*
X104439758Y-166064245D01*
X104389222Y-165897649D01*
X104307155Y-165744113D01*
X104196712Y-165609538D01*
X104068250Y-165504112D01*
X104068250Y-156634672D01*
X104071936Y-156597249D01*
X104065534Y-156532250D01*
X104057224Y-156447872D01*
X104013652Y-156304235D01*
X103942895Y-156171858D01*
X103847672Y-156055828D01*
X103818602Y-156031971D01*
X101699894Y-153913264D01*
X101703072Y-153881000D01*
X101703072Y-153331000D01*
X101690812Y-153206518D01*
X101690655Y-153206000D01*
X101690812Y-153205482D01*
X101703072Y-153081000D01*
X101703072Y-152531000D01*
X101690812Y-152406518D01*
X101690655Y-152406000D01*
X101690812Y-152405482D01*
X101703072Y-152281000D01*
X101703072Y-151867702D01*
X106235500Y-156400131D01*
X106235500Y-168408750D01*
X83196727Y-168408750D01*
X83206822Y-168306250D01*
X83203750Y-167692000D01*
X83045000Y-167533250D01*
X82145750Y-167533250D01*
X82145750Y-167553250D01*
X81891750Y-167553250D01*
X81891750Y-167533250D01*
X80992500Y-167533250D01*
X80833750Y-167692000D01*
X80830678Y-168306250D01*
X80840773Y-168408750D01*
X79496727Y-168408750D01*
X79506822Y-168306250D01*
X79506822Y-167387500D01*
X100330678Y-167387500D01*
X100342938Y-167511982D01*
X100379248Y-167631680D01*
X100438213Y-167741994D01*
X100517565Y-167838685D01*
X100614256Y-167918037D01*
X100724570Y-167977002D01*
X100844268Y-168013312D01*
X100968750Y-168025572D01*
X101195500Y-168022500D01*
X101354250Y-167863750D01*
X101354250Y-166814500D01*
X100492500Y-166814500D01*
X100333750Y-166973250D01*
X100330678Y-167387500D01*
X79506822Y-167387500D01*
X79506822Y-166506250D01*
X80830678Y-166506250D01*
X80833750Y-167120500D01*
X80992500Y-167279250D01*
X81891750Y-167279250D01*
X81891750Y-166030000D01*
X82145750Y-166030000D01*
X82145750Y-167279250D01*
X83045000Y-167279250D01*
X83203750Y-167120500D01*
X83206822Y-166506250D01*
X83194562Y-166381768D01*
X83158252Y-166262070D01*
X83099287Y-166151756D01*
X83019935Y-166055065D01*
X82937607Y-165987500D01*
X100330678Y-165987500D01*
X100333750Y-166401750D01*
X100492500Y-166560500D01*
X101354250Y-166560500D01*
X101354250Y-165511250D01*
X101195500Y-165352500D01*
X100968750Y-165349428D01*
X100844268Y-165361688D01*
X100724570Y-165397998D01*
X100614256Y-165456963D01*
X100517565Y-165536315D01*
X100438213Y-165633006D01*
X100379248Y-165743320D01*
X100342938Y-165863018D01*
X100330678Y-165987500D01*
X82937607Y-165987500D01*
X82923244Y-165975713D01*
X82812930Y-165916748D01*
X82693232Y-165880438D01*
X82568750Y-165868178D01*
X82304500Y-165871250D01*
X82145750Y-166030000D01*
X81891750Y-166030000D01*
X81733000Y-165871250D01*
X81468750Y-165868178D01*
X81344268Y-165880438D01*
X81224570Y-165916748D01*
X81114256Y-165975713D01*
X81017565Y-166055065D01*
X80938213Y-166151756D01*
X80879248Y-166262070D01*
X80842938Y-166381768D01*
X80830678Y-166506250D01*
X79506822Y-166506250D01*
X79494562Y-166381768D01*
X79458252Y-166262070D01*
X79399287Y-166151756D01*
X79319935Y-166055065D01*
X79223244Y-165975713D01*
X79112930Y-165916748D01*
X78993232Y-165880438D01*
X78868750Y-165868178D01*
X77768750Y-165868178D01*
X77644268Y-165880438D01*
X77524570Y-165916748D01*
X77414256Y-165975713D01*
X77317565Y-166055065D01*
X77238213Y-166151756D01*
X77179248Y-166262070D01*
X77142938Y-166381768D01*
X77130678Y-166506250D01*
X77130678Y-168306250D01*
X77140773Y-168408750D01*
X75438529Y-168408750D01*
X75072540Y-168372864D01*
X74751538Y-168275948D01*
X74455475Y-168118529D01*
X74195627Y-167906601D01*
X73981894Y-167648242D01*
X73822412Y-167353286D01*
X73723257Y-167032969D01*
X73685000Y-166668979D01*
X73685000Y-133382279D01*
X73720886Y-133016290D01*
X73817801Y-132695290D01*
X73975221Y-132399225D01*
X74187149Y-132139377D01*
X74445510Y-131925642D01*
X74740464Y-131766162D01*
X75060782Y-131667006D01*
X75424762Y-131628750D01*
X75890360Y-131628750D01*
X75848987Y-131765139D01*
%TA.AperFunction,Conductor*%
D21*
G36*
X75848987Y-131765139D02*
G01*
X75827500Y-131983300D01*
X75827500Y-133129199D01*
X75848987Y-133347360D01*
X75933901Y-133627283D01*
X76071794Y-133885263D01*
X76257366Y-134111384D01*
X76483486Y-134296956D01*
X76741466Y-134434849D01*
X77021389Y-134519763D01*
X77312500Y-134548435D01*
X77603610Y-134519763D01*
X77883533Y-134434849D01*
X78141513Y-134296956D01*
X78367634Y-134111384D01*
X78553206Y-133885264D01*
X78691099Y-133627284D01*
X78776013Y-133347361D01*
X78797500Y-133129200D01*
X78797500Y-131983300D01*
X78776013Y-131765139D01*
X78734640Y-131628750D01*
X83190360Y-131628750D01*
X83148987Y-131765139D01*
X83127500Y-131983300D01*
X83127500Y-133129199D01*
X83148987Y-133347360D01*
X83233901Y-133627283D01*
X83371794Y-133885263D01*
X83557366Y-134111384D01*
X83783486Y-134296956D01*
X84041466Y-134434849D01*
X84321389Y-134519763D01*
X84612500Y-134548435D01*
X84903610Y-134519763D01*
X85183533Y-134434849D01*
X85441513Y-134296956D01*
X85667634Y-134111384D01*
X85853206Y-133885264D01*
X85991099Y-133627284D01*
X86076013Y-133347361D01*
X86097500Y-133129200D01*
X86097500Y-131983300D01*
X86076013Y-131765139D01*
X86034640Y-131628750D01*
X106235500Y-131628750D01*
X106235500Y-147244000D01*
X101703072Y-147244000D01*
X101703072Y-147231500D01*
X101997200Y-147231500D01*
X102037750Y-147235494D01*
X102078300Y-147231500D01*
X102078303Y-147231500D01*
X102199576Y-147219556D01*
X102355184Y-147172353D01*
X102498592Y-147095699D01*
X102516728Y-147080815D01*
X102695648Y-147045226D01*
X102884006Y-146967205D01*
X103053524Y-146853937D01*
X103197687Y-146709774D01*
X103310955Y-146540256D01*
X103388976Y-146351898D01*
X103428750Y-146151939D01*
X103428750Y-145948061D01*
X103388976Y-145748102D01*
X103310955Y-145559744D01*
X103197687Y-145390226D01*
X103053524Y-145246063D01*
X102884006Y-145132795D01*
X102695648Y-145054774D01*
X102495689Y-145015000D01*
X102291811Y-145015000D01*
X102091852Y-145054774D01*
X101903494Y-145132795D01*
X101733976Y-145246063D01*
X101696883Y-145283156D01*
X101690177Y-145203369D01*
X101653265Y-145083855D01*
X101593746Y-144973839D01*
X101513908Y-144877549D01*
X101416818Y-144798684D01*
X101306208Y-144740276D01*
X101186329Y-144704570D01*
X101061787Y-144692936D01*
X100600750Y-144696000D01*
X100442000Y-144854750D01*
X100442000Y-145479000D01*
X100462000Y-145479000D01*
X100462000Y-145492928D01*
X99565000Y-145492928D01*
X99440518Y-145505188D01*
X99320820Y-145541498D01*
X99210506Y-145600463D01*
X99113815Y-145679815D01*
X99034463Y-145776506D01*
X99022083Y-145799667D01*
X98930000Y-145891750D01*
X98939546Y-146005337D01*
X98939188Y-146006518D01*
X98926928Y-146131000D01*
X98926928Y-146681000D01*
X98939188Y-146805482D01*
X98939345Y-146806000D01*
X98939188Y-146806518D01*
X98926928Y-146931000D01*
X98926928Y-147481000D01*
X98939188Y-147605482D01*
X98939345Y-147606000D01*
X98939188Y-147606518D01*
X98926928Y-147731000D01*
X98926928Y-148281000D01*
X98939188Y-148405482D01*
X98939345Y-148406000D01*
X98939188Y-148406518D01*
X98926928Y-148531000D01*
X98926928Y-149081000D01*
X98939188Y-149205482D01*
X98939345Y-149206000D01*
X98939188Y-149206518D01*
X98926928Y-149331000D01*
X98926928Y-149881000D01*
X98939188Y-150005482D01*
X98939345Y-150006000D01*
X98939188Y-150006518D01*
X98926928Y-150131000D01*
X98926928Y-150681000D01*
X98939188Y-150805482D01*
X98939345Y-150806000D01*
X98939188Y-150806518D01*
X98926928Y-150931000D01*
X98926928Y-151481000D01*
X98939188Y-151605482D01*
X98939345Y-151606000D01*
X98939188Y-151606518D01*
X98926928Y-151731000D01*
X98926928Y-152281000D01*
X98939188Y-152405482D01*
X98939345Y-152406000D01*
X98939188Y-152406518D01*
X98926928Y-152531000D01*
X98926928Y-153081000D01*
X98939188Y-153205482D01*
X98939345Y-153206000D01*
X98939188Y-153206518D01*
X98926928Y-153331000D01*
X98926928Y-153881000D01*
X98930962Y-153921962D01*
X98890000Y-153917928D01*
X98340000Y-153917928D01*
X98215518Y-153930188D01*
X98214337Y-153930546D01*
X98100750Y-153921000D01*
X98008667Y-154013083D01*
X97985506Y-154025463D01*
X97888815Y-154104815D01*
X97815000Y-154194759D01*
X97741185Y-154104815D01*
X97644494Y-154025463D01*
X97621333Y-154013083D01*
X97529250Y-153921000D01*
X97415663Y-153930546D01*
X97414482Y-153930188D01*
X97290000Y-153917928D01*
X96740000Y-153917928D01*
X96615518Y-153930188D01*
X96615000Y-153930345D01*
X96614482Y-153930188D01*
X96490000Y-153917928D01*
X95940000Y-153917928D01*
X95815518Y-153930188D01*
X95815000Y-153930345D01*
X95814482Y-153930188D01*
X95690000Y-153917928D01*
X95140000Y-153917928D01*
X95015518Y-153930188D01*
X95015000Y-153930345D01*
X95014482Y-153930188D01*
X94890000Y-153917928D01*
X94340000Y-153917928D01*
X94215518Y-153930188D01*
X94215000Y-153930345D01*
X94214482Y-153930188D01*
X94090000Y-153917928D01*
X93540000Y-153917928D01*
X93415518Y-153930188D01*
X93415000Y-153930345D01*
X93414482Y-153930188D01*
X93290000Y-153917928D01*
X92740000Y-153917928D01*
X92615518Y-153930188D01*
X92615000Y-153930345D01*
X92614482Y-153930188D01*
X92490000Y-153917928D01*
X91940000Y-153917928D01*
X91815518Y-153930188D01*
X91814337Y-153930546D01*
X91700750Y-153921000D01*
X91608667Y-154013083D01*
X91585506Y-154025463D01*
X91488815Y-154104815D01*
X91415000Y-154194759D01*
X91341185Y-154104815D01*
X91244494Y-154025463D01*
X91221333Y-154013083D01*
X91129250Y-153921000D01*
X91015663Y-153930546D01*
X91014482Y-153930188D01*
X90890000Y-153917928D01*
X90340000Y-153917928D01*
X90299038Y-153921962D01*
X90303072Y-153881000D01*
X90303072Y-153331000D01*
X90290812Y-153206518D01*
X90290655Y-153206000D01*
X90290812Y-153205482D01*
X90303072Y-153081000D01*
X90303072Y-152531000D01*
X90290812Y-152406518D01*
X90290655Y-152406000D01*
X90290812Y-152405482D01*
X90303072Y-152281000D01*
X90303072Y-151731000D01*
X90290812Y-151606518D01*
X90290655Y-151606000D01*
X90290812Y-151605482D01*
X90303072Y-151481000D01*
X90303072Y-150931000D01*
X90290812Y-150806518D01*
X90290454Y-150805337D01*
X90300000Y-150691750D01*
X90207917Y-150599667D01*
X90195537Y-150576506D01*
X90116185Y-150479815D01*
X90026241Y-150406000D01*
X90116185Y-150332185D01*
X90195537Y-150235494D01*
X90207917Y-150212333D01*
X90300000Y-150120250D01*
X90290454Y-150006663D01*
X90290812Y-150005482D01*
X90303072Y-149881000D01*
X90303072Y-149331000D01*
X90290812Y-149206518D01*
X90290655Y-149206000D01*
X90290812Y-149205482D01*
X90303072Y-149081000D01*
X90303072Y-148531000D01*
X90290812Y-148406518D01*
X90290655Y-148406000D01*
X90290812Y-148405482D01*
X90303072Y-148281000D01*
X90303072Y-147731000D01*
X90290812Y-147606518D01*
X90290655Y-147606000D01*
X90290812Y-147605482D01*
X90303072Y-147481000D01*
X90303072Y-146931000D01*
X90290812Y-146806518D01*
X90290655Y-146806000D01*
X90290812Y-146805482D01*
X90303072Y-146681000D01*
X90303072Y-146131000D01*
X90290812Y-146006518D01*
X90290655Y-146006000D01*
X90290812Y-146005482D01*
X90303072Y-145881000D01*
X90303072Y-145331000D01*
X90299038Y-145290038D01*
X90340000Y-145294072D01*
X90890000Y-145294072D01*
X91014482Y-145281812D01*
X91015000Y-145281655D01*
X91015518Y-145281812D01*
X91140000Y-145294072D01*
X91690000Y-145294072D01*
X91814482Y-145281812D01*
X91815000Y-145281655D01*
X91815518Y-145281812D01*
X91940000Y-145294072D01*
X92490000Y-145294072D01*
X92614482Y-145281812D01*
X92615663Y-145281454D01*
X92729250Y-145291000D01*
X92821333Y-145198917D01*
X92844494Y-145186537D01*
X92941185Y-145107185D01*
X93015000Y-145017241D01*
X93088815Y-145107185D01*
X93185506Y-145186537D01*
X93208667Y-145198917D01*
X93300750Y-145291000D01*
X93414337Y-145281454D01*
X93415518Y-145281812D01*
X93540000Y-145294072D01*
X94090000Y-145294072D01*
X94214482Y-145281812D01*
X94215000Y-145281655D01*
X94215518Y-145281812D01*
X94340000Y-145294072D01*
X94890000Y-145294072D01*
X95014482Y-145281812D01*
X95015000Y-145281655D01*
X95015518Y-145281812D01*
X95140000Y-145294072D01*
X95690000Y-145294072D01*
X95814482Y-145281812D01*
X95815000Y-145281655D01*
X95815518Y-145281812D01*
X95940000Y-145294072D01*
X96490000Y-145294072D01*
X96614482Y-145281812D01*
X96615000Y-145281655D01*
X96615518Y-145281812D01*
X96740000Y-145294072D01*
X97290000Y-145294072D01*
X97414482Y-145281812D01*
X97415000Y-145281655D01*
X97415518Y-145281812D01*
X97540000Y-145294072D01*
X98090000Y-145294072D01*
X98214482Y-145281812D01*
X98215000Y-145281655D01*
X98215518Y-145281812D01*
X98340000Y-145294072D01*
X98890000Y-145294072D01*
X98932552Y-145289881D01*
X98930000Y-145320250D01*
X99088750Y-145479000D01*
X100188000Y-145479000D01*
X100188000Y-144854750D01*
X100029250Y-144696000D01*
X99568213Y-144692936D01*
X99524028Y-144697064D01*
X99528072Y-144656000D01*
X99528072Y-143156000D01*
X99515812Y-143031518D01*
X99479502Y-142911820D01*
X99420537Y-142801506D01*
X99341185Y-142704815D01*
X99244494Y-142625463D01*
X99134180Y-142566498D01*
X99014482Y-142530188D01*
X98890000Y-142517928D01*
X98340000Y-142517928D01*
X98215518Y-142530188D01*
X98215000Y-142530345D01*
X98214482Y-142530188D01*
X98090000Y-142517928D01*
X97540000Y-142517928D01*
X97415518Y-142530188D01*
X97415000Y-142530345D01*
X97414482Y-142530188D01*
X97290000Y-142517928D01*
X96740000Y-142517928D01*
X96615518Y-142530188D01*
X96615000Y-142530345D01*
X96614482Y-142530188D01*
X96490000Y-142517928D01*
X95940000Y-142517928D01*
X95815518Y-142530188D01*
X95815000Y-142530345D01*
X95814482Y-142530188D01*
X95690000Y-142517928D01*
X95377000Y-142517928D01*
X95377000Y-141013130D01*
X95395808Y-140994322D01*
X96256250Y-140994322D01*
X96380732Y-140982062D01*
X96500430Y-140945752D01*
X96610744Y-140886787D01*
X96707435Y-140807435D01*
X96786787Y-140710744D01*
X96836227Y-140618250D01*
X97226871Y-140618250D01*
X97322038Y-140734212D01*
X97456614Y-140844655D01*
X97610150Y-140926722D01*
X97776746Y-140977258D01*
X97950000Y-140994322D01*
X98900000Y-140994322D01*
X99073254Y-140977258D01*
X99239850Y-140926722D01*
X99393386Y-140844655D01*
X99527962Y-140734212D01*
X99638405Y-140599636D01*
X99720472Y-140446100D01*
X99771008Y-140279504D01*
X99788072Y-140106250D01*
X99788072Y-139606250D01*
X99771008Y-139432996D01*
X99720472Y-139266400D01*
X99638405Y-139112864D01*
X99527962Y-138978288D01*
X99521406Y-138972908D01*
X99601185Y-138907435D01*
X99680537Y-138810744D01*
X99739502Y-138700430D01*
X99775812Y-138580732D01*
X99788072Y-138456250D01*
X99785000Y-138242000D01*
X99626250Y-138083250D01*
X98552000Y-138083250D01*
X98552000Y-138103250D01*
X98298000Y-138103250D01*
X98298000Y-138083250D01*
X97223750Y-138083250D01*
X97065000Y-138242000D01*
X97061928Y-138456250D01*
X97074188Y-138580732D01*
X97110498Y-138700430D01*
X97169463Y-138810744D01*
X97248815Y-138907435D01*
X97328594Y-138972908D01*
X97322038Y-138978288D01*
X97226871Y-139094250D01*
X96888216Y-139094250D01*
X96882062Y-139031768D01*
X96845752Y-138912070D01*
X96842641Y-138906250D01*
X96845752Y-138900430D01*
X96882062Y-138780732D01*
X96894322Y-138656250D01*
X96891250Y-138342000D01*
X96732500Y-138183250D01*
X95683250Y-138183250D01*
X95683250Y-138203250D01*
X95429250Y-138203250D01*
X95429250Y-138183250D01*
X95409250Y-138183250D01*
X95409250Y-137929250D01*
X95429250Y-137929250D01*
X95429250Y-136980000D01*
X95683250Y-136980000D01*
X95683250Y-137929250D01*
X96732500Y-137929250D01*
X96891250Y-137770500D01*
X96894322Y-137456250D01*
X97061928Y-137456250D01*
X97065000Y-137670500D01*
X97223750Y-137829250D01*
X98298000Y-137829250D01*
X98298000Y-136980000D01*
X98552000Y-136980000D01*
X98552000Y-137829250D01*
X99626250Y-137829250D01*
X99785000Y-137670500D01*
X99788072Y-137456250D01*
X99775812Y-137331768D01*
X99739502Y-137212070D01*
X99680537Y-137101756D01*
X99601185Y-137005065D01*
X99504494Y-136925713D01*
X99394180Y-136866748D01*
X99274482Y-136830438D01*
X99150000Y-136818178D01*
X98710750Y-136821250D01*
X98552000Y-136980000D01*
X98298000Y-136980000D01*
X98139250Y-136821250D01*
X97700000Y-136818178D01*
X97575518Y-136830438D01*
X97455820Y-136866748D01*
X97345506Y-136925713D01*
X97248815Y-137005065D01*
X97169463Y-137101756D01*
X97110498Y-137212070D01*
X97074188Y-137331768D01*
X97061928Y-137456250D01*
X96894322Y-137456250D01*
X96882062Y-137331768D01*
X96845752Y-137212070D01*
X96786787Y-137101756D01*
X96707435Y-137005065D01*
X96610744Y-136925713D01*
X96500430Y-136866748D01*
X96380732Y-136830438D01*
X96256250Y-136818178D01*
X95842000Y-136821250D01*
X95683250Y-136980000D01*
X95429250Y-136980000D01*
X95270500Y-136821250D01*
X94856250Y-136818178D01*
X94731768Y-136830438D01*
X94612070Y-136866748D01*
X94501756Y-136925713D01*
X94456250Y-136963059D01*
X94410744Y-136925713D01*
X94300430Y-136866748D01*
X94180732Y-136830438D01*
X94056250Y-136818178D01*
X92656250Y-136818178D01*
X92531768Y-136830438D01*
X92412070Y-136866748D01*
X92301756Y-136925713D01*
X92205065Y-137005065D01*
X92125713Y-137101756D01*
X92076273Y-137194250D01*
X91685629Y-137194250D01*
X91590462Y-137078288D01*
X91455886Y-136967845D01*
X91302350Y-136885778D01*
X91135754Y-136835242D01*
X90962500Y-136818178D01*
X90012500Y-136818178D01*
X89839246Y-136835242D01*
X89672650Y-136885778D01*
X89519114Y-136967845D01*
X89384538Y-137078288D01*
X89274095Y-137212864D01*
X89192028Y-137366400D01*
X89141492Y-137532996D01*
X89124428Y-137706250D01*
X89124428Y-138206250D01*
X89141492Y-138379504D01*
X89192028Y-138546100D01*
X89274095Y-138699636D01*
X89384538Y-138834212D01*
X89391094Y-138839592D01*
X89311315Y-138905065D01*
X89231963Y-139001756D01*
X89172998Y-139112070D01*
X89136688Y-139231768D01*
X89124428Y-139356250D01*
X89127500Y-139570500D01*
X89286250Y-139729250D01*
X90360500Y-139729250D01*
X90360500Y-139709250D01*
X90614500Y-139709250D01*
X90614500Y-139729250D01*
X90634500Y-139729250D01*
X90634500Y-139983250D01*
X90614500Y-139983250D01*
X90614500Y-140003250D01*
X90360500Y-140003250D01*
X90360500Y-139983250D01*
X89286250Y-139983250D01*
X89127500Y-140142000D01*
X89124428Y-140356250D01*
X89136688Y-140480732D01*
X89172998Y-140600430D01*
X89231963Y-140710744D01*
X89254528Y-140738240D01*
X88190280Y-140738240D01*
X88116437Y-140627726D01*
X87972274Y-140483563D01*
X87802756Y-140370295D01*
X87614398Y-140292274D01*
X87414439Y-140252500D01*
X87210561Y-140252500D01*
X87010602Y-140292274D01*
X86822244Y-140370295D01*
X86652726Y-140483563D01*
X86508563Y-140627726D01*
X86395295Y-140797244D01*
X86317274Y-140985602D01*
X86285072Y-141147494D01*
X84827387Y-142605181D01*
X84795880Y-142631038D01*
X84755904Y-142679750D01*
X84692722Y-142756737D01*
X84640426Y-142854575D01*
X84616068Y-142900146D01*
X84568865Y-143055754D01*
X84557809Y-143168015D01*
X84552927Y-143217579D01*
X84556921Y-143258129D01*
X84556921Y-143497276D01*
X84440994Y-143545295D01*
X84271476Y-143658563D01*
X84127313Y-143802726D01*
X84014045Y-143972244D01*
X83936024Y-144160602D01*
X83896250Y-144360561D01*
X83896250Y-144564439D01*
X83921225Y-144690000D01*
X83854248Y-144690000D01*
X83854248Y-144848748D01*
X83695500Y-144690000D01*
X83481250Y-144686928D01*
X83356768Y-144699188D01*
X83237070Y-144735498D01*
X83126756Y-144794463D01*
X83030065Y-144873815D01*
X82950713Y-144970506D01*
X82891748Y-145080820D01*
X82855438Y-145200518D01*
X82843178Y-145325000D01*
X82846250Y-145764250D01*
X83005000Y-145923000D01*
X83854250Y-145923000D01*
X83854250Y-145903000D01*
X84108250Y-145903000D01*
X84108250Y-145923000D01*
X84128250Y-145923000D01*
X84128250Y-146177000D01*
X84108250Y-146177000D01*
X84108250Y-146197000D01*
X83854250Y-146197000D01*
X83854250Y-146177000D01*
X83005000Y-146177000D01*
X82846250Y-146335750D01*
X82843178Y-146775000D01*
X82855438Y-146899482D01*
X82891748Y-147019180D01*
X82950713Y-147129494D01*
X83030065Y-147226185D01*
X83126756Y-147305537D01*
X83237070Y-147364502D01*
X83356768Y-147400812D01*
X83481250Y-147413072D01*
X83695500Y-147410000D01*
X83854248Y-147251252D01*
X83854248Y-147375733D01*
X83828288Y-147397038D01*
X83717845Y-147531614D01*
X83635778Y-147685150D01*
X83585242Y-147851746D01*
X83568178Y-148025000D01*
X83568178Y-148525000D01*
X83585242Y-148698254D01*
X83635778Y-148864850D01*
X83717845Y-149018386D01*
X83828288Y-149152962D01*
X83834844Y-149158342D01*
X83755065Y-149223815D01*
X83675713Y-149320506D01*
X83616748Y-149430820D01*
X83580438Y-149550518D01*
X83568178Y-149675000D01*
X83571250Y-149889250D01*
X83729998Y-150047998D01*
X83656879Y-150047998D01*
X81724500Y-148115620D01*
X81724500Y-145571880D01*
X82268601Y-145027780D01*
X82297672Y-145003922D01*
X82392895Y-144887892D01*
X82463652Y-144755515D01*
X82507224Y-144611878D01*
X82518250Y-144499926D01*
X82518250Y-144499924D01*
X82521936Y-144462501D01*
X82518250Y-144425078D01*
X82518250Y-144085170D01*
X82546101Y-144076722D01*
X82699637Y-143994655D01*
X82834212Y-143884212D01*
X82944655Y-143749637D01*
X83026722Y-143596101D01*
X83077258Y-143429505D01*
X83094322Y-143256251D01*
X83094322Y-142731249D01*
X83077258Y-142557995D01*
X83026722Y-142391399D01*
X82944655Y-142237863D01*
X82834212Y-142103288D01*
X82807359Y-142081250D01*
X82834212Y-142059212D01*
X82944655Y-141924637D01*
X83026722Y-141771101D01*
X83077258Y-141604505D01*
X83094322Y-141431251D01*
X83094322Y-140906249D01*
X83077258Y-140732995D01*
X83026722Y-140566399D01*
X82944655Y-140412863D01*
X82834212Y-140278288D01*
X82699637Y-140167845D01*
X82546101Y-140085778D01*
X82379505Y-140035242D01*
X82206251Y-140018178D01*
X81724500Y-140018178D01*
X81724500Y-138819322D01*
X82012500Y-138819322D01*
X82136982Y-138807062D01*
X82161766Y-138799544D01*
X82181139Y-138805654D01*
X82280750Y-138816250D01*
X82439500Y-138657500D01*
X82439500Y-138652283D01*
X82463685Y-138632435D01*
X82543037Y-138535744D01*
X82602002Y-138425430D01*
X82638312Y-138305732D01*
X82650572Y-138181250D01*
X82650572Y-135931250D01*
X82638312Y-135806768D01*
X82602002Y-135687070D01*
X82543037Y-135576756D01*
X82463685Y-135480065D01*
X82439500Y-135460217D01*
X82439500Y-135455000D01*
X82685500Y-135455000D01*
X82685500Y-136929250D01*
X82709500Y-136929250D01*
X82709500Y-137183250D01*
X82685500Y-137183250D01*
X82685500Y-138657500D01*
X82844250Y-138816250D01*
X82943861Y-138805654D01*
X83063152Y-138768029D01*
X83172811Y-138707854D01*
X83268623Y-138627443D01*
X83346906Y-138529884D01*
X83402623Y-138422828D01*
X83557366Y-138611384D01*
X83783486Y-138796956D01*
X84041466Y-138934849D01*
X84321389Y-139019763D01*
X84612500Y-139048435D01*
X84903610Y-139019763D01*
X85183533Y-138934849D01*
X85441513Y-138796956D01*
X85667634Y-138611384D01*
X85853206Y-138385264D01*
X85991099Y-138127284D01*
X86076013Y-137847361D01*
X86097500Y-137629200D01*
X86097500Y-136483300D01*
X86076013Y-136265139D01*
X85991099Y-135985216D01*
X85853206Y-135727236D01*
X85667634Y-135501116D01*
X85441514Y-135315544D01*
X85183534Y-135177651D01*
X84903611Y-135092737D01*
X84612500Y-135064065D01*
X84321390Y-135092737D01*
X84041467Y-135177651D01*
X83783487Y-135315544D01*
X83557367Y-135501116D01*
X83402623Y-135689671D01*
X83346906Y-135582616D01*
X83268623Y-135485057D01*
X83172811Y-135404646D01*
X83063152Y-135344471D01*
X82943861Y-135306846D01*
X82844250Y-135296250D01*
X82685500Y-135455000D01*
X82439500Y-135455000D01*
X82280750Y-135296250D01*
X82181139Y-135306846D01*
X82161766Y-135312956D01*
X82136982Y-135305438D01*
X82012500Y-135293178D01*
X81512500Y-135293178D01*
X81388018Y-135305438D01*
X81362500Y-135313179D01*
X81336982Y-135305438D01*
X81212500Y-135293178D01*
X80712500Y-135293178D01*
X80588018Y-135305438D01*
X80562500Y-135313179D01*
X80536982Y-135305438D01*
X80412500Y-135293178D01*
X79912500Y-135293178D01*
X79788018Y-135305438D01*
X79762500Y-135313179D01*
X79736982Y-135305438D01*
X79612500Y-135293178D01*
X79112500Y-135293178D01*
X78988018Y-135305438D01*
X78868320Y-135341748D01*
X78758006Y-135400713D01*
X78661315Y-135480065D01*
X78581963Y-135576756D01*
X78522998Y-135687070D01*
X78522254Y-135689521D01*
X78367634Y-135501116D01*
X78141514Y-135315544D01*
X77883534Y-135177651D01*
X77603611Y-135092737D01*
X77312500Y-135064065D01*
X77021390Y-135092737D01*
X76741467Y-135177651D01*
X76483487Y-135315544D01*
X76257367Y-135501116D01*
X76071794Y-135727236D01*
X75933901Y-135985216D01*
X75848987Y-136265139D01*
X75827500Y-136483300D01*
X75827500Y-137629199D01*
X75848987Y-137847360D01*
X75933901Y-138127283D01*
X76071794Y-138385263D01*
X76257366Y-138611384D01*
X76483486Y-138796956D01*
X76741466Y-138934849D01*
X77021389Y-139019763D01*
X77275297Y-139044771D01*
X75038711Y-141281357D01*
X75007210Y-141307209D01*
X74981359Y-141338709D01*
X74904051Y-141432908D01*
X74827397Y-141576317D01*
X74780195Y-141731924D01*
X74764256Y-141893750D01*
X74768251Y-141934310D01*
X74768250Y-144663672D01*
X74725364Y-144686595D01*
X74590788Y-144797038D01*
X74480345Y-144931614D01*
X74398278Y-145085150D01*
X74347742Y-145251746D01*
X74330678Y-145425000D01*
X74330678Y-146675000D01*
X74347742Y-146848254D01*
X74398278Y-147014850D01*
X74480345Y-147168386D01*
X74590788Y-147302962D01*
X74725364Y-147413405D01*
X74878900Y-147495472D01*
X75045496Y-147546008D01*
X75218750Y-147563072D01*
X75968750Y-147563072D01*
X76142004Y-147546008D01*
X76308600Y-147495472D01*
X76462136Y-147413405D01*
X76596712Y-147302962D01*
X76707155Y-147168386D01*
X76789222Y-147014850D01*
X76839758Y-146848254D01*
X76856822Y-146675000D01*
X76856822Y-145425000D01*
X76839758Y-145251746D01*
X76789222Y-145085150D01*
X76707155Y-144931614D01*
X76596712Y-144797038D01*
X76462136Y-144686595D01*
X76419250Y-144663672D01*
X76419250Y-142235682D01*
X78122894Y-140532038D01*
X78104528Y-140566399D01*
X78053992Y-140732995D01*
X78036928Y-140906249D01*
X78036928Y-141431251D01*
X78053992Y-141604505D01*
X78104528Y-141771101D01*
X78186595Y-141924637D01*
X78297038Y-142059212D01*
X78323891Y-142081250D01*
X78297038Y-142103288D01*
X78186595Y-142237863D01*
X78104528Y-142391399D01*
X78053992Y-142557995D01*
X78036928Y-142731249D01*
X78036928Y-143256251D01*
X78053992Y-143429505D01*
X78104528Y-143596101D01*
X78186595Y-143749637D01*
X78297038Y-143884212D01*
X78431613Y-143994655D01*
X78585149Y-144076722D01*
X78613001Y-144085171D01*
X78613001Y-144425067D01*
X78609314Y-144462500D01*
X78616645Y-144536928D01*
X78018750Y-144536928D01*
X77845496Y-144553992D01*
X77678900Y-144604528D01*
X77525364Y-144686595D01*
X77390788Y-144797038D01*
X77280345Y-144931614D01*
X77198278Y-145085150D01*
X77147742Y-145251746D01*
X77130678Y-145425000D01*
X77130678Y-146675000D01*
X77147742Y-146848254D01*
X77198278Y-147014850D01*
X77280345Y-147168386D01*
X77390788Y-147302962D01*
X77525364Y-147413405D01*
X77568250Y-147436328D01*
X77568251Y-150584437D01*
X77564256Y-150625000D01*
X77568250Y-150665553D01*
X77568251Y-153640690D01*
X77564256Y-153681250D01*
X77580195Y-153843076D01*
X77627397Y-153998683D01*
X77704051Y-154142092D01*
X77755008Y-154204182D01*
X77807210Y-154267791D01*
X77838711Y-154293643D01*
X79624428Y-156079361D01*
X79624428Y-156512501D01*
X79641492Y-156685755D01*
X79692028Y-156852351D01*
X79774095Y-157005887D01*
X79884538Y-157140462D01*
X79911391Y-157162500D01*
X79884538Y-157184538D01*
X79774095Y-157319113D01*
X79692028Y-157472649D01*
X79641492Y-157639245D01*
X79624428Y-157812499D01*
X79624428Y-158335441D01*
X78291692Y-159668178D01*
X77768750Y-159668178D01*
X77644268Y-159680438D01*
X77524570Y-159716748D01*
X77414256Y-159775713D01*
X77317565Y-159855065D01*
X77238213Y-159951756D01*
X77179248Y-160062070D01*
X77142938Y-160181768D01*
X77130678Y-160306250D01*
X77130678Y-162106250D01*
X77142938Y-162230732D01*
X77179248Y-162350430D01*
X77238213Y-162460744D01*
X77317565Y-162557435D01*
X77414256Y-162636787D01*
X77524570Y-162695752D01*
X77644268Y-162732062D01*
X77768750Y-162744322D01*
X78868750Y-162744322D01*
X78993232Y-162732062D01*
X79112930Y-162695752D01*
X79223244Y-162636787D01*
X79319935Y-162557435D01*
X79399287Y-162460744D01*
X79458252Y-162350430D01*
X79494562Y-162230732D01*
X79506822Y-162106250D01*
X79506822Y-160608308D01*
X79808880Y-160306250D01*
X80830678Y-160306250D01*
X80830678Y-162106250D01*
X80842938Y-162230732D01*
X80879248Y-162350430D01*
X80938213Y-162460744D01*
X81017565Y-162557435D01*
X81114256Y-162636787D01*
X81224570Y-162695752D01*
X81344268Y-162732062D01*
X81468750Y-162744322D01*
X82568750Y-162744322D01*
X82693232Y-162732062D01*
X82812930Y-162695752D01*
X82923244Y-162636787D01*
X83019935Y-162557435D01*
X83099287Y-162460744D01*
X83158252Y-162350430D01*
X83194562Y-162230732D01*
X83203301Y-162142000D01*
X96336928Y-162142000D01*
X96349188Y-162266482D01*
X96385498Y-162386180D01*
X96444463Y-162496494D01*
X96523815Y-162593185D01*
X96620506Y-162672537D01*
X96730820Y-162731502D01*
X96850518Y-162767812D01*
X96975000Y-162780072D01*
X97189250Y-162777000D01*
X97348000Y-162618250D01*
X97348000Y-161544000D01*
X96498750Y-161544000D01*
X96340000Y-161702750D01*
X96336928Y-162142000D01*
X83203301Y-162142000D01*
X83206822Y-162106250D01*
X83206822Y-160306250D01*
X83194562Y-160181768D01*
X83158252Y-160062070D01*
X83099287Y-159951756D01*
X83019935Y-159855065D01*
X82923244Y-159775713D01*
X82812930Y-159716748D01*
X82693232Y-159680438D01*
X82568750Y-159668178D01*
X81468750Y-159668178D01*
X81344268Y-159680438D01*
X81224570Y-159716748D01*
X81114256Y-159775713D01*
X81017565Y-159855065D01*
X80938213Y-159951756D01*
X80879248Y-160062070D01*
X80842938Y-160181768D01*
X80830678Y-160306250D01*
X79808880Y-160306250D01*
X80889559Y-159225572D01*
X81412501Y-159225572D01*
X81585755Y-159208508D01*
X81752351Y-159157972D01*
X81905887Y-159075905D01*
X82040462Y-158965462D01*
X82145888Y-158837000D01*
X83592685Y-158837000D01*
X83647244Y-158873455D01*
X83835602Y-158951476D01*
X84035561Y-158991250D01*
X84239439Y-158991250D01*
X84439398Y-158951476D01*
X84627756Y-158873455D01*
X84797274Y-158760187D01*
X84941437Y-158616024D01*
X85054705Y-158446506D01*
X85132726Y-158258148D01*
X85172500Y-158058189D01*
X85172500Y-157854311D01*
X85132726Y-157654352D01*
X85054705Y-157465994D01*
X84941437Y-157296476D01*
X84797274Y-157152313D01*
X84627756Y-157039045D01*
X84439398Y-156961024D01*
X84239439Y-156921250D01*
X84035561Y-156921250D01*
X83835602Y-156961024D01*
X83647244Y-157039045D01*
X83477726Y-157152313D01*
X83333563Y-157296476D01*
X83322522Y-157313000D01*
X82145888Y-157313000D01*
X82040462Y-157184538D01*
X82013609Y-157162500D01*
X82040462Y-157140462D01*
X82150905Y-157005887D01*
X82232972Y-156852351D01*
X82283508Y-156685755D01*
X82300572Y-156512501D01*
X82300572Y-156079360D01*
X84748433Y-153631500D01*
X86949000Y-153631500D01*
X86949000Y-154152841D01*
X86945005Y-154193401D01*
X86960944Y-154355227D01*
X87008146Y-154510834D01*
X87084800Y-154654243D01*
X87138322Y-154719459D01*
X87187959Y-154779942D01*
X87219460Y-154805794D01*
X88274709Y-155861045D01*
X88300557Y-155892541D01*
X88332053Y-155918389D01*
X88332056Y-155918392D01*
X88426255Y-155995699D01*
X88533059Y-156052787D01*
X88569664Y-156072353D01*
X88725272Y-156119556D01*
X88846545Y-156131500D01*
X88846547Y-156131500D01*
X88887098Y-156135494D01*
X88927648Y-156131500D01*
X89410501Y-156131500D01*
X89410500Y-157222983D01*
X89358038Y-157266038D01*
X89247595Y-157400614D01*
X89165528Y-157554150D01*
X89114992Y-157720746D01*
X89097928Y-157894000D01*
X89097928Y-158178389D01*
X87966246Y-159310071D01*
X87804352Y-159342274D01*
X87615994Y-159420295D01*
X87446476Y-159533563D01*
X87302313Y-159677726D01*
X87189045Y-159847244D01*
X87111024Y-160035602D01*
X87071250Y-160235561D01*
X87071250Y-160439439D01*
X87111024Y-160639398D01*
X87189045Y-160827756D01*
X87302313Y-160997274D01*
X87446476Y-161141437D01*
X87615994Y-161254705D01*
X87804352Y-161332726D01*
X88004311Y-161372500D01*
X88208189Y-161372500D01*
X88408148Y-161332726D01*
X88596506Y-161254705D01*
X88766024Y-161141437D01*
X88910187Y-160997274D01*
X89023455Y-160827756D01*
X89079687Y-160692000D01*
X96336928Y-160692000D01*
X96340000Y-161131250D01*
X96498750Y-161290000D01*
X97348000Y-161290000D01*
X97348000Y-160215750D01*
X97189250Y-160057000D01*
X96975000Y-160053928D01*
X96850518Y-160066188D01*
X96730820Y-160102498D01*
X96620506Y-160161463D01*
X96523815Y-160240815D01*
X96444463Y-160337506D01*
X96385498Y-160447820D01*
X96349188Y-160567518D01*
X96336928Y-160692000D01*
X89079687Y-160692000D01*
X89101476Y-160639398D01*
X89133679Y-160477504D01*
X89888694Y-159722488D01*
X89986000Y-159732072D01*
X90486000Y-159732072D01*
X90659254Y-159715008D01*
X90825850Y-159664472D01*
X90979386Y-159582405D01*
X91113962Y-159471962D01*
X91119342Y-159465406D01*
X91184815Y-159545185D01*
X91281506Y-159624537D01*
X91391820Y-159683502D01*
X91511518Y-159719812D01*
X91636000Y-159732072D01*
X91850250Y-159729000D01*
X92009000Y-159570250D01*
X92009000Y-158496000D01*
X92263000Y-158496000D01*
X92263000Y-159570250D01*
X92421750Y-159729000D01*
X92636000Y-159732072D01*
X92760482Y-159719812D01*
X92880180Y-159683502D01*
X92990494Y-159624537D01*
X93087185Y-159545185D01*
X93166537Y-159448494D01*
X93220253Y-159348000D01*
X96336928Y-159348000D01*
X96349188Y-159472482D01*
X96385498Y-159592180D01*
X96444463Y-159702494D01*
X96523815Y-159799185D01*
X96620506Y-159878537D01*
X96730820Y-159937502D01*
X96850518Y-159973812D01*
X96975000Y-159986072D01*
X97189250Y-159983000D01*
X97348000Y-159824250D01*
X97348000Y-158750000D01*
X96498750Y-158750000D01*
X96340000Y-158908750D01*
X96336928Y-159348000D01*
X93220253Y-159348000D01*
X93225502Y-159338180D01*
X93261812Y-159218482D01*
X93274072Y-159094000D01*
X93271000Y-158654750D01*
X93112250Y-158496000D01*
X92263000Y-158496000D01*
X92009000Y-158496000D01*
X91989000Y-158496000D01*
X91989000Y-158242000D01*
X92009000Y-158242000D01*
X92009000Y-157167750D01*
X92263000Y-157167750D01*
X92263000Y-158242000D01*
X93112250Y-158242000D01*
X93271000Y-158083250D01*
X93272295Y-157898000D01*
X96336928Y-157898000D01*
X96340000Y-158337250D01*
X96498750Y-158496000D01*
X97348000Y-158496000D01*
X97348000Y-157421750D01*
X97189250Y-157263000D01*
X96975000Y-157259928D01*
X96850518Y-157272188D01*
X96730820Y-157308498D01*
X96620506Y-157367463D01*
X96523815Y-157446815D01*
X96444463Y-157543506D01*
X96385498Y-157653820D01*
X96349188Y-157773518D01*
X96336928Y-157898000D01*
X93272295Y-157898000D01*
X93274072Y-157644000D01*
X93261812Y-157519518D01*
X93225502Y-157399820D01*
X93166537Y-157289506D01*
X93087185Y-157192815D01*
X92990494Y-157113463D01*
X92880180Y-157054498D01*
X92760482Y-157018188D01*
X92636000Y-157005928D01*
X92421750Y-157009000D01*
X92263000Y-157167750D01*
X92009000Y-157167750D01*
X91850250Y-157009000D01*
X91636000Y-157005928D01*
X91511518Y-157018188D01*
X91391820Y-157054498D01*
X91281506Y-157113463D01*
X91184815Y-157192815D01*
X91119342Y-157272594D01*
X91113962Y-157266038D01*
X91061500Y-157222984D01*
X91061500Y-156685306D01*
X91129250Y-156691000D01*
X91221333Y-156598917D01*
X91244494Y-156586537D01*
X91341185Y-156507185D01*
X91415000Y-156417241D01*
X91488815Y-156507185D01*
X91585506Y-156586537D01*
X91608667Y-156598917D01*
X91700750Y-156691000D01*
X91814337Y-156681454D01*
X91815518Y-156681812D01*
X91940000Y-156694072D01*
X92490000Y-156694072D01*
X92614482Y-156681812D01*
X92615000Y-156681655D01*
X92615518Y-156681812D01*
X92740000Y-156694072D01*
X93290000Y-156694072D01*
X93414482Y-156681812D01*
X93415000Y-156681655D01*
X93415518Y-156681812D01*
X93540000Y-156694072D01*
X94090000Y-156694072D01*
X94214482Y-156681812D01*
X94215000Y-156681655D01*
X94215518Y-156681812D01*
X94340000Y-156694072D01*
X94890000Y-156694072D01*
X95014482Y-156681812D01*
X95015000Y-156681655D01*
X95015518Y-156681812D01*
X95140000Y-156694072D01*
X95690000Y-156694072D01*
X95814482Y-156681812D01*
X95815000Y-156681655D01*
X95815518Y-156681812D01*
X95940000Y-156694072D01*
X96490000Y-156694072D01*
X96614482Y-156681812D01*
X96615000Y-156681655D01*
X96615518Y-156681812D01*
X96740000Y-156694072D01*
X97290000Y-156694072D01*
X97414482Y-156681812D01*
X97415663Y-156681454D01*
X97529250Y-156691000D01*
X97621333Y-156598917D01*
X97644494Y-156586537D01*
X97741185Y-156507185D01*
X97815000Y-156417241D01*
X97888815Y-156507185D01*
X97985506Y-156586537D01*
X98008667Y-156598917D01*
X98100750Y-156691000D01*
X98214337Y-156681454D01*
X98215518Y-156681812D01*
X98340000Y-156694072D01*
X98549501Y-156694072D01*
X98549500Y-157476983D01*
X98497038Y-157520038D01*
X98491658Y-157526594D01*
X98426185Y-157446815D01*
X98329494Y-157367463D01*
X98219180Y-157308498D01*
X98099482Y-157272188D01*
X97975000Y-157259928D01*
X97760750Y-157263000D01*
X97602000Y-157421750D01*
X97602000Y-158496000D01*
X97622000Y-158496000D01*
X97622000Y-158750000D01*
X97602000Y-158750000D01*
X97602000Y-159824250D01*
X97760750Y-159983000D01*
X97975000Y-159986072D01*
X98099482Y-159973812D01*
X98219180Y-159937502D01*
X98329494Y-159878537D01*
X98426185Y-159799185D01*
X98491658Y-159719406D01*
X98497038Y-159725962D01*
X98549501Y-159769017D01*
X98549500Y-160270983D01*
X98497038Y-160314038D01*
X98491658Y-160320594D01*
X98426185Y-160240815D01*
X98329494Y-160161463D01*
X98219180Y-160102498D01*
X98099482Y-160066188D01*
X97975000Y-160053928D01*
X97760750Y-160057000D01*
X97602000Y-160215750D01*
X97602000Y-161290000D01*
X97622000Y-161290000D01*
X97622000Y-161544000D01*
X97602000Y-161544000D01*
X97602000Y-162618250D01*
X97760750Y-162777000D01*
X97975000Y-162780072D01*
X98099482Y-162767812D01*
X98219180Y-162731502D01*
X98329494Y-162672537D01*
X98426185Y-162593185D01*
X98491658Y-162513406D01*
X98497038Y-162519962D01*
X98631614Y-162630405D01*
X98785150Y-162712472D01*
X98951746Y-162763008D01*
X99125000Y-162780072D01*
X99625000Y-162780072D01*
X99798254Y-162763008D01*
X99964850Y-162712472D01*
X100118386Y-162630405D01*
X100252962Y-162519962D01*
X100363405Y-162385386D01*
X100445472Y-162231850D01*
X100496008Y-162065254D01*
X100513072Y-161892000D01*
X100513072Y-160942000D01*
X100511598Y-160927030D01*
X100774501Y-161189934D01*
X100774500Y-162091247D01*
X100682795Y-162228494D01*
X100604774Y-162416852D01*
X100565000Y-162616811D01*
X100565000Y-162820689D01*
X100604774Y-163020648D01*
X100682795Y-163209006D01*
X100796063Y-163378524D01*
X100940226Y-163522687D01*
X101109744Y-163635955D01*
X101298102Y-163713976D01*
X101498061Y-163753750D01*
X101701939Y-163753750D01*
X101901898Y-163713976D01*
X102090256Y-163635955D01*
X102259774Y-163522687D01*
X102403937Y-163378524D01*
X102517205Y-163209006D01*
X102544250Y-163143713D01*
X102544250Y-165504112D01*
X102469113Y-165565776D01*
X102444935Y-165536315D01*
X102348244Y-165456963D01*
X102237930Y-165397998D01*
X102118232Y-165361688D01*
X101993750Y-165349428D01*
X101767000Y-165352500D01*
X101608250Y-165511250D01*
X101608250Y-166560500D01*
X101628250Y-166560500D01*
X101628250Y-166814500D01*
X101608250Y-166814500D01*
X101608250Y-167863750D01*
X101767000Y-168022500D01*
X101993750Y-168025572D01*
X102118232Y-168013312D01*
X102237930Y-167977002D01*
X102348244Y-167918037D01*
X102444935Y-167838685D01*
X102469113Y-167809224D01*
X102550363Y-167875905D01*
X102703899Y-167957972D01*
X102870495Y-168008508D01*
X103043749Y-168025572D01*
X103568751Y-168025572D01*
X103742005Y-168008508D01*
X103908601Y-167957972D01*
X104062137Y-167875905D01*
X104196712Y-167765462D01*
X104307155Y-167630887D01*
X104389222Y-167477351D01*
X104439758Y-167310755D01*
X104456822Y-167137501D01*
X104456822Y-166237499D01*
X104439758Y-166064245D01*
X104389222Y-165897649D01*
X104307155Y-165744113D01*
X104196712Y-165609538D01*
X104068250Y-165504112D01*
X104068250Y-156634672D01*
X104071936Y-156597249D01*
X104065534Y-156532250D01*
X104057224Y-156447872D01*
X104013652Y-156304235D01*
X103942895Y-156171858D01*
X103847672Y-156055828D01*
X103818602Y-156031971D01*
X101699894Y-153913264D01*
X101703072Y-153881000D01*
X101703072Y-153331000D01*
X101690812Y-153206518D01*
X101690655Y-153206000D01*
X101690812Y-153205482D01*
X101703072Y-153081000D01*
X101703072Y-152531000D01*
X101690812Y-152406518D01*
X101690655Y-152406000D01*
X101690812Y-152405482D01*
X101703072Y-152281000D01*
X101703072Y-151867702D01*
X106235500Y-156400131D01*
X106235500Y-168408750D01*
X83196727Y-168408750D01*
X83206822Y-168306250D01*
X83203750Y-167692000D01*
X83045000Y-167533250D01*
X82145750Y-167533250D01*
X82145750Y-167553250D01*
X81891750Y-167553250D01*
X81891750Y-167533250D01*
X80992500Y-167533250D01*
X80833750Y-167692000D01*
X80830678Y-168306250D01*
X80840773Y-168408750D01*
X79496727Y-168408750D01*
X79506822Y-168306250D01*
X79506822Y-167387500D01*
X100330678Y-167387500D01*
X100342938Y-167511982D01*
X100379248Y-167631680D01*
X100438213Y-167741994D01*
X100517565Y-167838685D01*
X100614256Y-167918037D01*
X100724570Y-167977002D01*
X100844268Y-168013312D01*
X100968750Y-168025572D01*
X101195500Y-168022500D01*
X101354250Y-167863750D01*
X101354250Y-166814500D01*
X100492500Y-166814500D01*
X100333750Y-166973250D01*
X100330678Y-167387500D01*
X79506822Y-167387500D01*
X79506822Y-166506250D01*
X80830678Y-166506250D01*
X80833750Y-167120500D01*
X80992500Y-167279250D01*
X81891750Y-167279250D01*
X81891750Y-166030000D01*
X82145750Y-166030000D01*
X82145750Y-167279250D01*
X83045000Y-167279250D01*
X83203750Y-167120500D01*
X83206822Y-166506250D01*
X83194562Y-166381768D01*
X83158252Y-166262070D01*
X83099287Y-166151756D01*
X83019935Y-166055065D01*
X82937607Y-165987500D01*
X100330678Y-165987500D01*
X100333750Y-166401750D01*
X100492500Y-166560500D01*
X101354250Y-166560500D01*
X101354250Y-165511250D01*
X101195500Y-165352500D01*
X100968750Y-165349428D01*
X100844268Y-165361688D01*
X100724570Y-165397998D01*
X100614256Y-165456963D01*
X100517565Y-165536315D01*
X100438213Y-165633006D01*
X100379248Y-165743320D01*
X100342938Y-165863018D01*
X100330678Y-165987500D01*
X82937607Y-165987500D01*
X82923244Y-165975713D01*
X82812930Y-165916748D01*
X82693232Y-165880438D01*
X82568750Y-165868178D01*
X82304500Y-165871250D01*
X82145750Y-166030000D01*
X81891750Y-166030000D01*
X81733000Y-165871250D01*
X81468750Y-165868178D01*
X81344268Y-165880438D01*
X81224570Y-165916748D01*
X81114256Y-165975713D01*
X81017565Y-166055065D01*
X80938213Y-166151756D01*
X80879248Y-166262070D01*
X80842938Y-166381768D01*
X80830678Y-166506250D01*
X79506822Y-166506250D01*
X79494562Y-166381768D01*
X79458252Y-166262070D01*
X79399287Y-166151756D01*
X79319935Y-166055065D01*
X79223244Y-165975713D01*
X79112930Y-165916748D01*
X78993232Y-165880438D01*
X78868750Y-165868178D01*
X77768750Y-165868178D01*
X77644268Y-165880438D01*
X77524570Y-165916748D01*
X77414256Y-165975713D01*
X77317565Y-166055065D01*
X77238213Y-166151756D01*
X77179248Y-166262070D01*
X77142938Y-166381768D01*
X77130678Y-166506250D01*
X77130678Y-168306250D01*
X77140773Y-168408750D01*
X75438529Y-168408750D01*
X75072540Y-168372864D01*
X74751538Y-168275948D01*
X74455475Y-168118529D01*
X74195627Y-167906601D01*
X73981894Y-167648242D01*
X73822412Y-167353286D01*
X73723257Y-167032969D01*
X73685000Y-166668979D01*
X73685000Y-133382279D01*
X73720886Y-133016290D01*
X73817801Y-132695290D01*
X73975221Y-132399225D01*
X74187149Y-132139377D01*
X74445510Y-131925642D01*
X74740464Y-131766162D01*
X75060782Y-131667006D01*
X75424762Y-131628750D01*
X75890360Y-131628750D01*
X75848987Y-131765139D01*
G37*
%TD.AperFunction*%
D20*
X85058250Y-150048000D02*
X85078250Y-150048000D01*
X85078250Y-150302000D01*
X85058250Y-150302000D01*
X85058250Y-150322000D01*
X84804250Y-150322000D01*
X84804250Y-150302000D01*
X84784250Y-150302000D01*
X84784250Y-150048000D01*
X84804250Y-150048000D01*
X84804250Y-150028000D01*
X85058250Y-150028000D01*
X85058250Y-150048000D01*
%TA.AperFunction,Conductor*%
D21*
G36*
X85058250Y-150048000D02*
G01*
X85078250Y-150048000D01*
X85078250Y-150302000D01*
X85058250Y-150302000D01*
X85058250Y-150322000D01*
X84804250Y-150322000D01*
X84804250Y-150302000D01*
X84784250Y-150302000D01*
X84784250Y-150048000D01*
X84804250Y-150048000D01*
X84804250Y-150028000D01*
X85058250Y-150028000D01*
X85058250Y-150048000D01*
G37*
%TD.AperFunction*%
D20*
X91621848Y-140910866D02*
X91692604Y-141043243D01*
X91741562Y-141102898D01*
X91787828Y-141159273D01*
X91816898Y-141183130D01*
X93053000Y-142419233D01*
X93053000Y-142748455D01*
X93015000Y-142794759D01*
X92972635Y-142743137D01*
X92953482Y-142707305D01*
X92904699Y-142616038D01*
X92827392Y-142521839D01*
X92827389Y-142521836D01*
X92801541Y-142490340D01*
X92770045Y-142464492D01*
X91314257Y-141008706D01*
X91295726Y-140986125D01*
X91336982Y-140982062D01*
X91456680Y-140945752D01*
X91566994Y-140886787D01*
X91605066Y-140855542D01*
X91621848Y-140910866D01*
%TA.AperFunction,Conductor*%
D21*
G36*
X91621848Y-140910866D02*
G01*
X91692604Y-141043243D01*
X91741562Y-141102898D01*
X91787828Y-141159273D01*
X91816898Y-141183130D01*
X93053000Y-142419233D01*
X93053000Y-142748455D01*
X93015000Y-142794759D01*
X92972635Y-142743137D01*
X92953482Y-142707305D01*
X92904699Y-142616038D01*
X92827392Y-142521839D01*
X92827389Y-142521836D01*
X92801541Y-142490340D01*
X92770045Y-142464492D01*
X91314257Y-141008706D01*
X91295726Y-140986125D01*
X91336982Y-140982062D01*
X91456680Y-140945752D01*
X91566994Y-140886787D01*
X91605066Y-140855542D01*
X91621848Y-140910866D01*
G37*
%TD.AperFunction*%
D20*
X93483250Y-139629250D02*
X93503250Y-139629250D01*
X93503250Y-139883250D01*
X93483250Y-139883250D01*
X93483250Y-139903250D01*
X93229250Y-139903250D01*
X93229250Y-139883250D01*
X93209250Y-139883250D01*
X93209250Y-139629250D01*
X93229250Y-139629250D01*
X93229250Y-139609250D01*
X93483250Y-139609250D01*
X93483250Y-139629250D01*
%TA.AperFunction,Conductor*%
D21*
G36*
X93483250Y-139629250D02*
G01*
X93503250Y-139629250D01*
X93503250Y-139883250D01*
X93483250Y-139883250D01*
X93483250Y-139903250D01*
X93229250Y-139903250D01*
X93229250Y-139883250D01*
X93209250Y-139883250D01*
X93209250Y-139629250D01*
X93229250Y-139629250D01*
X93229250Y-139609250D01*
X93483250Y-139609250D01*
X93483250Y-139629250D01*
G37*
%TD.AperFunction*%
%TD*%
M02*
